<svg width="378" height="283" viewBox="0 0 378 283" fill="none" xmlns="http://www.w3.org/2000/svg">
<rect x="40" y="46" width="298" height="196" rx="20" fill="#ABBDFF"/>
<path d="M182.923 120.65C186.51 117.906 191.49 117.906 195.077 120.65L329.232 223.308C336.826 229.119 332.717 241.25 323.155 241.25H54.8447C45.2834 241.25 41.1744 229.119 48.7676 223.308L182.923 120.65Z" fill="#9DB1FF"/>
<path d="M212.219 155.227C201.528 165.456 184.851 165.996 173.52 156.48L162.255 147.019C141.882 129.909 153.377 96.6884 179.967 95.8274L201.861 95.1184C228.452 94.2574 242.071 126.665 222.848 145.057L212.219 155.227Z" fill="#ABBDFF"/>
<path d="M42 228L155 143" stroke="#2422C1" stroke-width="7"/>
<path d="M233 143L335.5 223.5" stroke="#2422C1" stroke-width="7"/>
<path d="M244 46H58.5267C41.5071 46 35.0481 68.2367 49.4192 77.3546L180.848 160.741C185.977 163.995 192.453 164.265 197.835 161.45L292 112.19" stroke="#2422C1" stroke-width="7"/>
<path d="M207.07 166.135L204.531 161.256L204.531 161.256L207.07 166.135ZM138 141.977L134.933 146.543L135.027 146.606L135.123 146.665L138 141.977ZM175.558 165.024L172.682 169.712L172.682 169.712L175.558 165.024ZM322.191 119.792L321.612 114.322L321.612 114.322L322.191 119.792ZM319.86 120.039L320.439 125.508L320.439 125.508L319.86 120.039ZM311.201 119.64L312.28 114.247L312.28 114.247L311.201 119.64ZM339.979 116.797C342.076 114.6 341.995 111.118 339.797 109.021C337.6 106.924 334.118 107.005 332.021 109.203L336 113L339.979 116.797ZM207.07 166.135L209.61 171.013L303.04 122.379L300.5 117.5L297.96 112.621L204.531 161.256L207.07 166.135ZM42 77.4773L38.9327 82.0426L134.933 146.543L138 141.977L141.067 137.412L45.0673 72.912L42 77.4773ZM138 141.977L135.123 146.665L172.682 169.712L175.558 165.024L178.435 160.337L140.877 137.29L138 141.977ZM322.191 119.792L321.612 114.322L319.281 114.569L319.86 120.039L320.439 125.508L322.77 125.261L322.191 119.792ZM311.201 119.64L312.28 114.247L301.579 112.107L300.5 117.5L299.421 122.893L310.123 125.033L311.201 119.64ZM300.5 117.5L303.8 113.1L297.8 108.6L294.5 113L291.2 117.4L297.2 121.9L300.5 117.5ZM336 113L332.021 109.203C329.267 112.088 325.579 113.902 321.612 114.322L322.191 119.792L322.77 125.261C329.328 124.567 335.426 121.568 339.979 116.797L336 113ZM319.86 120.039L319.281 114.569C316.944 114.816 314.584 114.708 312.28 114.247L311.201 119.64L310.123 125.033C313.517 125.712 316.996 125.872 320.439 125.508L319.86 120.039ZM207.07 166.135L204.531 161.256C196.274 165.554 186.368 165.205 178.435 160.337L175.558 165.024L172.682 169.712C183.908 176.601 197.926 177.095 209.61 171.013L207.07 166.135Z" fill="black" fill-opacity="0.2"/>
<path d="M41.5 61L40.1409 225.003C40.0631 234.391 47.6092 242.064 56.9967 242.144L318.856 244.355C328.301 244.435 336 236.808 336 227.363C336 180.764 336 126.625 336 139.5" stroke="#2422C1" stroke-width="7"/>
<circle cx="318" cy="60" r="56" fill="#FF5BA8" stroke="#2422C1" stroke-width="8"/>
<path d="M348.083 55.0397C351.483 56.3075 351.574 61.0831 348.225 62.4796L297.551 83.6087C294.253 84.9837 290.944 81.6745 292.32 78.377L299.897 60.21C300.33 59.1717 300.306 57.999 299.83 56.9794L292.705 41.7013C291.192 38.4578 294.374 35.0122 297.727 36.2627L348.083 55.0397Z" fill="white"/>
<path d="M321.771 56.3806C323.48 57.0109 323.526 59.4114 321.842 60.1059L299.071 69.4969C297.42 70.178 295.772 68.517 296.466 66.8709L299.795 58.9756C300.016 58.4521 300.004 57.8594 299.761 57.3455L296.661 50.7712C295.898 49.1521 297.483 47.4223 299.162 48.0418L321.771 56.3806Z" fill="#FF5BA8" fill-opacity="0.26"/>
<rect x="213" y="204" width="34" height="8" rx="4" fill="white"/>
<rect x="162" y="220" width="85" height="8" rx="4" fill="white"/>
<rect x="256" y="201" width="36" height="27" rx="5" fill="#03FFB4"/>
</svg>
