<svg width="450" height="380" viewBox="0 0 450 380" fill="none" xmlns="http://www.w3.org/2000/svg">
<g filter="url(#filter0_d_39_2)">
<path d="M416.893 50.9502L417.402 51.4336C421.735 55.5519 421.51 62.5266 416.922 66.3579L393.987 85.5076C391.487 87.595 387.833 87.5276 385.412 85.3493C382.932 83.1184 382.526 79.38 384.469 76.6686L401.875 52.3743C405.411 47.4392 412.493 46.7677 416.893 50.9502Z" fill="#FF5BA8"/>
<path d="M402.281 52.6654C405.64 47.9771 412.368 47.3395 416.549 51.3129L417.058 51.7963C421.174 55.7086 420.961 62.3343 416.602 65.974L393.667 85.1234C391.358 87.0514 387.983 86.9898 385.746 84.9779C383.456 82.9174 383.081 79.4637 384.875 76.9594L402.281 52.6654Z" stroke="#FF5BA8"/>
</g>
<g filter="url(#filter1_d_39_2)">
<path d="M432.346 93.1781L432.651 93.8304C435.231 99.3471 432.511 105.829 426.853 107.648L398.764 116.679C395.722 117.657 392.394 116.217 390.928 113.289C389.405 110.247 390.372 106.567 393.167 104.772L418.005 88.8212C423.021 85.5997 429.759 87.6466 432.346 93.1781Z" fill="#FF5BA8"/>
<path d="M418.275 89.2489C423.041 86.1886 429.441 88.1335 431.899 93.3884L432.204 94.0403C434.655 99.2811 432.071 105.439 426.696 107.167L398.607 116.198C395.797 117.101 392.723 115.771 391.369 113.067C389.962 110.257 390.856 106.858 393.437 105.2L418.275 89.2489Z" stroke="#FF5BA8"/>
</g>
<path d="M211.68 40.7087C205.13 41.2941 205.032 50.9162 211.583 51.5016C213.994 51.717 215.935 53.601 216.206 56.0063C216.88 61.9899 225.572 61.8905 226.341 55.9184C226.644 53.5591 228.55 51.7027 230.916 51.4637C237.349 50.8142 237.249 41.3948 230.817 40.7453C228.504 40.5117 226.621 38.7139 226.283 36.4132C225.43 30.6105 217.007 30.5069 216.258 36.324C215.956 38.6731 214.039 40.4979 211.68 40.7087Z" fill="#6582FD" stroke="#6582FD"/>
<path d="M377.737 189.796C371.187 190.382 371.089 200.004 377.64 200.589C380.05 200.804 381.992 202.688 382.263 205.094C382.937 211.077 391.629 210.978 392.398 205.006C392.701 202.646 394.607 200.79 396.973 200.551C403.406 199.902 403.306 190.482 396.874 189.833C394.56 189.599 392.678 187.801 392.34 185.501C391.487 179.698 383.063 179.594 382.315 185.411C382.013 187.76 380.096 189.585 377.737 189.796Z" fill="#6582FD" stroke="#6582FD"/>
<ellipse cx="414.787" cy="307.397" rx="3.70663" ry="3.84246" fill="#01EBA4"/>
<ellipse cx="404.408" cy="305.86" rx="3.70663" ry="3.84246" fill="#01EBA4"/>
<ellipse cx="404.408" cy="336.599" rx="3.70663" ry="3.84246" fill="#01EBA4"/>
<ellipse cx="392.177" cy="321.23" rx="3.70663" ry="3.84246" fill="#01EBA4"/>
<ellipse cx="421.83" cy="315.082" rx="3.70663" ry="3.84246" fill="#01EBA4"/>
<ellipse cx="414.787" cy="335.062" rx="3.70663" ry="3.84246" fill="#01EBA4"/>
<ellipse cx="421.83" cy="327.378" rx="3.70663" ry="3.84246" fill="#01EBA4"/>
<ellipse cx="395.883" cy="311.239" rx="3.70663" ry="3.84246" fill="#01EBA4"/>
<ellipse cx="394.771" cy="331.22" rx="3.70663" ry="3.84246" fill="#01EBA4"/>
<ellipse cx="58.9507" cy="6.91643" rx="3.70663" ry="3.84246" fill="#01EBA4"/>
<ellipse cx="48.5721" cy="5.37944" rx="3.70663" ry="3.84246" fill="#01EBA4"/>
<ellipse cx="48.5721" cy="36.1191" rx="3.70663" ry="3.84246" fill="#01EBA4"/>
<ellipse cx="36.3402" cy="20.7493" rx="3.70663" ry="3.84246" fill="#01EBA4"/>
<ellipse cx="65.9932" cy="14.6013" rx="3.70663" ry="3.84246" fill="#01EBA4"/>
<ellipse cx="58.9507" cy="34.5821" rx="3.70663" ry="3.84246" fill="#01EBA4"/>
<ellipse cx="65.9932" cy="26.8972" rx="3.70663" ry="3.84246" fill="#01EBA4"/>
<ellipse cx="40.0468" cy="10.7589" rx="3.70663" ry="3.84246" fill="#01EBA4"/>
<ellipse cx="38.9349" cy="30.7397" rx="3.70663" ry="3.84246" fill="#01EBA4"/>
<rect x="117.145" y="124.496" width="220.915" height="150.624" rx="23" fill="#ABBDFF"/>
<path d="M221.388 183.22C225.028 180.332 230.177 180.332 233.817 183.22L326.459 256.709C333.881 262.597 329.718 274.544 320.244 274.544H134.96C125.487 274.544 121.323 262.597 128.745 256.709L221.388 183.22Z" fill="#9DB1FF"/>
<path d="M247.58 205.693C238.17 215.026 223.169 215.53 213.196 206.847C195.9 191.789 206.075 163.285 229.022 162.515C251.968 161.745 263.901 189.506 247.58 205.693Z" fill="#ABBDFF"/>
<path d="M125 264L205 198.5" stroke="#2422C1" stroke-width="7"/>
<path d="M251 202L336 261" stroke="#2422C1" stroke-width="7"/>
<path d="M283.72 123.894H133.087C115.384 123.894 109.471 147.577 125.096 155.899L222.633 207.843C226.993 210.165 232.149 210.476 236.756 208.693L335.5 170.5" stroke="#2422C1" stroke-width="7"/>
<path d="M117 149V257.455C117 266.793 124.533 274.383 133.871 274.454L319.871 275.87C329.31 275.941 336.993 268.321 336.894 258.882C336.513 222.702 335.24 169.845 335.24 178.104" stroke="#2422C1" stroke-width="7"/>
<circle cx="319.678" cy="134.432" r="41.2872" fill="#FF5BA8" stroke="#2422C1" stroke-width="8"/>
<path d="M345.534 131.443C348.055 132.417 348.122 136.087 345.64 137.16L308.074 153.398C305.629 154.454 303.176 151.911 304.196 149.377L309.813 135.416C310.134 134.618 310.116 133.717 309.764 132.933L304.481 121.192C303.36 118.7 305.719 116.052 308.205 117.013L345.534 131.443Z" fill="white"/>
<path d="M326.029 132.473C327.296 132.957 327.33 134.802 326.081 135.336L309.201 142.553C307.977 143.076 306.755 141.8 307.269 140.535L309.738 134.467C309.901 134.065 309.892 133.61 309.712 133.215L307.414 128.162C306.848 126.918 308.023 125.589 309.268 126.065L326.029 132.473Z" fill="#FF5BA8" fill-opacity="0.26"/>
<rect x="245.394" y="245.917" width="25.2051" height="6.14793" rx="3.07397" fill="white"/>
<rect x="207.586" y="258.213" width="63.0127" height="6.14793" rx="3.07397" fill="white"/>
<rect x="277.271" y="243.612" width="26.6877" height="20.7493" rx="5" fill="#03FFB4"/>
<g filter="url(#filter2_d_39_2)">
<path d="M107.468 50.0339L107.983 49.5292C112.445 45.1575 119.8 45.9401 123.292 51.1581L139.897 75.9738C141.62 78.5481 141.32 81.9672 139.179 84.1832C136.739 86.707 132.735 86.8459 130.102 84.498L107.85 64.6533C103.516 60.7889 103.341 54.0767 107.468 50.0339Z" fill="#FF5BA8"/>
<path d="M108.181 64.2811C104.065 60.6099 103.898 54.2326 107.819 50.392L108.333 49.8877C112.573 45.7347 119.559 46.4781 122.876 51.435L139.482 76.2508C141.074 78.6289 140.797 81.7875 138.819 83.8347C136.565 86.1661 132.866 86.2939 130.434 84.1249L108.181 64.2811Z" stroke="#FF5BA8"/>
</g>
<g filter="url(#filter3_d_39_2)">
<path d="M69.6596 91.8519L70.0217 91.2185C73.147 85.7518 80.4002 84.4126 85.135 88.4279L107.694 107.56C110.039 109.548 110.661 112.933 109.186 115.681C107.514 118.798 103.715 120.069 100.568 118.566L73.9128 105.834C68.7139 103.351 66.7593 96.9251 69.6596 91.8519Z" fill="#FF5BA8"/>
<path d="M74.1317 105.381C69.1929 103.022 67.3359 96.9175 70.091 92.098L70.4528 91.4645C73.4218 86.2712 80.3123 84.9989 84.8104 88.8135L107.37 107.945C109.536 109.782 110.11 112.909 108.748 115.448C107.203 118.327 103.694 119.501 100.787 118.113L74.1317 105.381Z" stroke="#FF5BA8"/>
</g>
<path d="M60.4346 322.709C53.8839 323.294 53.7862 332.916 60.3369 333.502C62.7478 333.717 64.6898 335.601 64.9605 338.006C65.6339 343.99 74.3268 343.89 75.0949 337.918C75.3984 335.559 77.3041 333.703 79.6708 333.464C86.1031 332.814 86.0037 323.395 79.5714 322.745C77.2578 322.512 75.3753 320.714 75.0372 318.413C74.1842 312.61 65.7608 312.507 65.0126 318.324C64.7105 320.673 62.7936 322.498 60.4346 322.709Z" fill="#FF5BA8" stroke="#FF5BA8"/>
<defs>
<filter id="filter0_d_39_2" x="379.244" y="48.1981" width="45.2691" height="46.8311" filterUnits="userSpaceOnUse" color-interpolation-filters="sRGB">
<feFlood flood-opacity="0" result="BackgroundImageFix"/>
<feColorMatrix in="SourceAlpha" type="matrix" values="0 0 0 0 0 0 0 0 0 0 0 0 0 0 0 0 0 0 127 0" result="hardAlpha"/>
<feOffset dy="4"/>
<feGaussianBlur stdDeviation="2"/>
<feComposite in2="hardAlpha" operator="out"/>
<feColorMatrix type="matrix" values="0 0 0 0 0 0 0 0 0 0 0 0 0 0 0 0 0 0 0.25 0"/>
<feBlend mode="normal" in2="BackgroundImageFix" result="effect1_dropShadow_39_2"/>
<feBlend mode="normal" in="SourceGraphic" in2="effect1_dropShadow_39_2" result="shape"/>
</filter>
<filter id="filter1_d_39_2" x="386.209" y="87.2884" width="51.4209" height="37.6952" filterUnits="userSpaceOnUse" color-interpolation-filters="sRGB">
<feFlood flood-opacity="0" result="BackgroundImageFix"/>
<feColorMatrix in="SourceAlpha" type="matrix" values="0 0 0 0 0 0 0 0 0 0 0 0 0 0 0 0 0 0 127 0" result="hardAlpha"/>
<feOffset dy="4"/>
<feGaussianBlur stdDeviation="2"/>
<feComposite in2="hardAlpha" operator="out"/>
<feColorMatrix type="matrix" values="0 0 0 0 0 0 0 0 0 0 0 0 0 0 0 0 0 0 0.25 0"/>
<feBlend mode="normal" in2="BackgroundImageFix" result="effect1_dropShadow_39_2"/>
<feBlend mode="normal" in="SourceGraphic" in2="effect1_dropShadow_39_2" result="shape"/>
</filter>
<filter id="filter2_d_39_2" x="100.483" y="46.6909" width="44.5293" height="47.4806" filterUnits="userSpaceOnUse" color-interpolation-filters="sRGB">
<feFlood flood-opacity="0" result="BackgroundImageFix"/>
<feColorMatrix in="SourceAlpha" type="matrix" values="0 0 0 0 0 0 0 0 0 0 0 0 0 0 0 0 0 0 127 0" result="hardAlpha"/>
<feOffset dy="4"/>
<feGaussianBlur stdDeviation="2"/>
<feComposite in2="hardAlpha" operator="out"/>
<feColorMatrix type="matrix" values="0 0 0 0 0 0 0 0 0 0 0 0 0 0 0 0 0 0 0.25 0"/>
<feBlend mode="normal" in2="BackgroundImageFix" result="effect1_dropShadow_39_2"/>
<feBlend mode="normal" in="SourceGraphic" in2="effect1_dropShadow_39_2" result="shape"/>
</filter>
<filter id="filter3_d_39_2" x="64.3137" y="86.1004" width="49.6677" height="41.0964" filterUnits="userSpaceOnUse" color-interpolation-filters="sRGB">
<feFlood flood-opacity="0" result="BackgroundImageFix"/>
<feColorMatrix in="SourceAlpha" type="matrix" values="0 0 0 0 0 0 0 0 0 0 0 0 0 0 0 0 0 0 127 0" result="hardAlpha"/>
<feOffset dy="4"/>
<feGaussianBlur stdDeviation="2"/>
<feComposite in2="hardAlpha" operator="out"/>
<feColorMatrix type="matrix" values="0 0 0 0 0 0 0 0 0 0 0 0 0 0 0 0 0 0 0.25 0"/>
<feBlend mode="normal" in2="BackgroundImageFix" result="effect1_dropShadow_39_2"/>
<feBlend mode="normal" in="SourceGraphic" in2="effect1_dropShadow_39_2" result="shape"/>
</filter>
</defs>
</svg>
