<svg width="262" height="226" viewBox="0 0 262 226" fill="none" xmlns="http://www.w3.org/2000/svg">
<g filter="url(#filter0_d_24_20)">
<path d="M223.917 43.2214L233.956 29.6244C236.049 26.7906 240.138 26.4014 242.727 28.7896C245.379 31.2354 245.244 35.4645 242.441 37.7355L229.309 48.3759C227.889 49.5267 225.847 49.4892 224.469 48.2869C222.995 46.9995 222.755 44.7962 223.917 43.2214Z" fill="#FF5BA8"/>
<path d="M234.359 29.9215C236.274 27.3273 240.018 26.9709 242.388 29.1569C244.816 31.396 244.692 35.2682 242.126 37.3473L228.994 47.987C227.763 48.9848 225.992 48.9522 224.798 47.9098C223.52 46.7936 223.312 44.8834 224.32 43.5182L234.359 29.9215Z" stroke="#FF5BA8"/>
</g>
<g filter="url(#filter1_d_24_20)">
<path d="M228.985 59.1502L243.299 50.2292C246.28 48.3717 250.216 49.5225 251.747 52.6989C253.318 55.9588 251.64 59.8486 248.199 60.9221L232.099 65.9455C230.359 66.4883 228.479 65.6981 227.64 64.0721C226.739 62.3268 227.325 60.1848 228.985 59.1502Z" fill="#FF5BA8"/>
<path d="M243.564 50.6551C246.292 48.9546 249.896 50.0076 251.298 52.9154C252.736 55.8997 251.199 59.4612 248.049 60.4439L231.949 65.4674C230.441 65.9379 228.81 65.2528 228.083 63.8431C227.303 62.3301 227.81 60.473 229.249 59.5759L243.564 50.6551Z" stroke="#FF5BA8"/>
</g>
<path d="M123.257 22.9994C119.539 23.3219 119.481 28.7769 123.199 29.0993C124.599 29.2208 125.725 30.3106 125.887 31.7065C126.289 35.1683 131.314 35.1105 131.772 31.6557C131.954 30.2866 133.059 29.2127 134.434 29.0781C138.087 28.7201 138.028 23.3779 134.375 23.0199C133.032 22.8883 131.94 21.8492 131.738 20.515C131.23 17.1609 126.364 17.1005 125.918 20.4636C125.738 21.8259 124.626 22.8806 123.257 22.9994Z" fill="#6582FD" stroke="#6582FD"/>
<path d="M219.939 107.234C216.221 107.556 216.163 113.011 219.881 113.334C221.281 113.455 222.408 114.545 222.569 115.941C222.971 119.403 227.997 119.345 228.454 115.89C228.636 114.521 229.741 113.447 231.116 113.312C234.769 112.954 234.71 107.612 231.057 107.254C229.714 107.123 228.622 106.084 228.42 104.749C227.912 101.395 223.046 101.335 222.6 104.698C222.42 106.06 221.308 107.115 219.939 107.234Z" fill="#6582FD" stroke="#6582FD"/>
<ellipse cx="241.498" cy="173.679" rx="2.15808" ry="2.17099" fill="#01EBA4"/>
<ellipse cx="235.456" cy="172.811" rx="2.15808" ry="2.17099" fill="#01EBA4"/>
<ellipse cx="235.456" cy="190.179" rx="2.15808" ry="2.17099" fill="#01EBA4"/>
<ellipse cx="228.334" cy="181.495" rx="2.15808" ry="2.17099" fill="#01EBA4"/>
<ellipse cx="245.599" cy="178.021" rx="2.15808" ry="2.17099" fill="#01EBA4"/>
<ellipse cx="241.498" cy="189.31" rx="2.15808" ry="2.17099" fill="#01EBA4"/>
<ellipse cx="245.599" cy="184.968" rx="2.15808" ry="2.17099" fill="#01EBA4"/>
<ellipse cx="230.492" cy="175.85" rx="2.15808" ry="2.17099" fill="#01EBA4"/>
<ellipse cx="229.845" cy="187.139" rx="2.15808" ry="2.17099" fill="#01EBA4"/>
<ellipse cx="34.3224" cy="3.90778" rx="2.15808" ry="2.17099" fill="#01EBA4"/>
<ellipse cx="28.2798" cy="3.03938" rx="2.15808" ry="2.17099" fill="#01EBA4"/>
<ellipse cx="28.2798" cy="20.4073" rx="2.15808" ry="2.17099" fill="#01EBA4"/>
<ellipse cx="21.1581" cy="11.7233" rx="2.15808" ry="2.17099" fill="#01EBA4"/>
<ellipse cx="38.4227" cy="8.24976" rx="2.15808" ry="2.17099" fill="#01EBA4"/>
<ellipse cx="34.3224" cy="19.5389" rx="2.15808" ry="2.17099" fill="#01EBA4"/>
<ellipse cx="38.4227" cy="15.1969" rx="2.15808" ry="2.17099" fill="#01EBA4"/>
<ellipse cx="23.3162" cy="6.07877" rx="2.15808" ry="2.17099" fill="#01EBA4"/>
<ellipse cx="22.6687" cy="17.3679" rx="2.15808" ry="2.17099" fill="#01EBA4"/>
<rect x="68.2043" y="70.3401" width="128.622" height="85.1028" rx="23" fill="#ABBDFF"/>
<path d="M126.415 105.43C130.011 102.662 135.019 102.662 138.615 105.43L179.877 137.193C187.442 143.017 183.324 155.117 173.777 155.117H91.2528C81.7061 155.117 77.588 143.017 85.1529 137.193L126.415 105.43Z" fill="#9DB1FF"/>
<path d="M143.781 116.569C138.466 121.684 130.147 121.955 124.516 117.197C114.45 108.692 120.168 92.2502 133.341 91.8211C146.514 91.392 153.279 107.427 143.781 116.569Z" fill="#ABBDFF"/>
<path d="M73 149L114 116" stroke="#2422C1" stroke-width="7"/>
<path d="M151.506 112.457L195.747 147.41" stroke="#2422C1" stroke-width="7"/>
<path d="M165.188 70H88.2554C69.5382 70 64.5625 95.8308 81.9405 102.784L124.029 119.623C127.859 121.155 132.115 121.243 136.005 119.869L196 98.6825" stroke="#2422C1" stroke-width="7"/>
<path d="M71 84V138.179C71 147.518 78.5327 155.108 87.8709 155.179L178.871 155.87C188.31 155.942 195.982 148.311 195.846 138.872C195.566 119.32 195 96.3589 195 100.5" stroke="#2422C1" stroke-width="7"/>
<circle cx="187.231" cy="76.3413" r="21.9743" fill="#FF5BA8" stroke="#2422C1" stroke-width="8"/>
<path d="M201.178 74.2651C202.645 74.8155 202.684 76.8891 201.239 77.4954L179.367 86.6697C177.944 87.2667 176.516 85.8299 177.11 84.3981L180.38 76.51C180.567 76.0592 180.557 75.55 180.351 75.1073L177.276 68.4736C176.623 67.0653 177.996 65.5692 179.444 66.1121L201.178 74.2651Z" fill="white"/>
<path d="M189.821 74.8473C190.559 75.121 190.579 76.1633 189.852 76.4648L180.024 80.5424C179.311 80.8381 178.599 80.1169 178.899 79.4022L180.336 75.974C180.431 75.7467 180.426 75.4894 180.321 75.2663L178.983 72.4117C178.654 71.7087 179.338 70.9576 180.063 71.2266L189.821 74.8473Z" fill="#FF5BA8" fill-opacity="0.26"/>
<rect x="142.874" y="138.943" width="14.675" height="3.47358" rx="1.73679" fill="white"/>
<rect x="120.861" y="145.89" width="36.6874" height="3.47358" rx="1.73679" fill="white"/>
<rect x="161.433" y="137.641" width="15.5382" height="11.7233" rx="5" fill="#03FFB4"/>
<g filter="url(#filter2_d_24_20)">
<path d="M75.8392 47.8199L63.0632 36.7633C60.4189 34.4749 60.3219 30.4065 62.8543 27.999C65.4883 25.495 69.738 25.9385 71.8029 28.933L81.3944 42.8428C82.4235 44.3353 82.2428 46.3487 80.9645 47.6321C79.5715 49.0308 77.3331 49.1128 75.8392 47.8199Z" fill="#FF5BA8"/>
<path d="M63.3898 36.3855C60.969 34.2904 60.8808 30.5658 63.1991 28.3617C65.6105 26.0694 69.5011 26.4749 71.3915 29.2162L80.9833 43.126C81.8757 44.4201 81.7183 46.166 80.61 47.2789C79.4021 48.4916 77.4615 48.5629 76.1662 47.4419L63.3898 36.3855Z" stroke="#FF5BA8"/>
</g>
<g filter="url(#filter3_d_24_20)">
<path d="M58.6534 67.0365L43.3476 59.942C40.1788 58.4732 38.9727 54.5863 40.7496 51.57C42.5968 48.4345 46.8015 47.6855 49.6048 49.9925L62.6306 60.7125C64.0287 61.8631 64.4057 63.85 63.5274 65.4382C62.5708 67.1679 60.4425 67.8658 58.6534 67.0365Z" fill="#FF5BA8"/>
<path d="M43.558 59.4881C40.6572 58.1433 39.5534 54.5842 41.1802 51.8229C42.8714 48.9528 46.7204 48.2673 49.2867 50.3792L62.3126 61.0992C63.5248 62.0968 63.8521 63.8197 63.0905 65.1968C62.2612 66.6964 60.4159 67.3016 58.8647 66.5829L43.558 59.4881Z" stroke="#FF5BA8"/>
</g>
<path d="M75.7794 193.639C72.0608 193.962 72.0027 199.417 75.7213 199.739C77.1213 199.861 78.2477 200.95 78.4096 202.346C78.811 205.808 83.8367 205.75 84.2946 202.295C84.476 200.926 85.5815 199.853 86.956 199.718C90.6094 199.36 90.5504 194.018 86.8971 193.66C85.5541 193.528 84.4624 192.489 84.2603 191.155C83.7522 187.801 78.8862 187.74 78.4405 191.103C78.2599 192.466 77.1485 193.52 75.7794 193.639Z" fill="#FF5BA8" stroke="#FF5BA8"/>
<defs>
<filter id="filter0_d_24_20" x="219.182" y="27.2219" width="29.4504" height="29.9926" filterUnits="userSpaceOnUse" color-interpolation-filters="sRGB">
<feFlood flood-opacity="0" result="BackgroundImageFix"/>
<feColorMatrix in="SourceAlpha" type="matrix" values="0 0 0 0 0 0 0 0 0 0 0 0 0 0 0 0 0 0 127 0" result="hardAlpha"/>
<feOffset dy="4"/>
<feGaussianBlur stdDeviation="2"/>
<feComposite in2="hardAlpha" operator="out"/>
<feColorMatrix type="matrix" values="0 0 0 0 0 0 0 0 0 0 0 0 0 0 0 0 0 0 0.25 0"/>
<feBlend mode="normal" in2="BackgroundImageFix" result="effect1_dropShadow_24_20"/>
<feBlend mode="normal" in="SourceGraphic" in2="effect1_dropShadow_24_20" result="shape"/>
</filter>
<filter id="filter1_d_24_20" x="223.218" y="49.3377" width="33.1214" height="24.778" filterUnits="userSpaceOnUse" color-interpolation-filters="sRGB">
<feFlood flood-opacity="0" result="BackgroundImageFix"/>
<feColorMatrix in="SourceAlpha" type="matrix" values="0 0 0 0 0 0 0 0 0 0 0 0 0 0 0 0 0 0 127 0" result="hardAlpha"/>
<feOffset dy="4"/>
<feGaussianBlur stdDeviation="2"/>
<feComposite in2="hardAlpha" operator="out"/>
<feColorMatrix type="matrix" values="0 0 0 0 0 0 0 0 0 0 0 0 0 0 0 0 0 0 0.25 0"/>
<feBlend mode="normal" in2="BackgroundImageFix" result="effect1_dropShadow_24_20"/>
<feBlend mode="normal" in="SourceGraphic" in2="effect1_dropShadow_24_20" result="shape"/>
</filter>
<filter id="filter2_d_24_20" x="57.0158" y="26.3718" width="29.0441" height="30.3661" filterUnits="userSpaceOnUse" color-interpolation-filters="sRGB">
<feFlood flood-opacity="0" result="BackgroundImageFix"/>
<feColorMatrix in="SourceAlpha" type="matrix" values="0 0 0 0 0 0 0 0 0 0 0 0 0 0 0 0 0 0 127 0" result="hardAlpha"/>
<feOffset dy="4"/>
<feGaussianBlur stdDeviation="2"/>
<feComposite in2="hardAlpha" operator="out"/>
<feColorMatrix type="matrix" values="0 0 0 0 0 0 0 0 0 0 0 0 0 0 0 0 0 0 0.25 0"/>
<feBlend mode="normal" in2="BackgroundImageFix" result="effect1_dropShadow_24_20"/>
<feBlend mode="normal" in="SourceGraphic" in2="effect1_dropShadow_24_20" result="shape"/>
</filter>
<filter id="filter3_d_24_20" x="35.9265" y="48.6479" width="32.0723" height="26.737" filterUnits="userSpaceOnUse" color-interpolation-filters="sRGB">
<feFlood flood-opacity="0" result="BackgroundImageFix"/>
<feColorMatrix in="SourceAlpha" type="matrix" values="0 0 0 0 0 0 0 0 0 0 0 0 0 0 0 0 0 0 127 0" result="hardAlpha"/>
<feOffset dy="4"/>
<feGaussianBlur stdDeviation="2"/>
<feComposite in2="hardAlpha" operator="out"/>
<feColorMatrix type="matrix" values="0 0 0 0 0 0 0 0 0 0 0 0 0 0 0 0 0 0 0.25 0"/>
<feBlend mode="normal" in2="BackgroundImageFix" result="effect1_dropShadow_24_20"/>
<feBlend mode="normal" in="SourceGraphic" in2="effect1_dropShadow_24_20" result="shape"/>
</filter>
</defs>
</svg>
