<svg xmlns="http://www.w3.org/2000/svg" xmlns:xlink="http://www.w3.org/1999/xlink" width="500" zoomAndPan="magnify" viewBox="0 0 375 374.999991" height="500" preserveAspectRatio="xMidYMid meet" version="1.0"><defs><clipPath id="b31f7d0f98"><path d="M 37.5 37.5 L 337.5 37.5 L 337.5 337.5 L 37.5 337.5 Z M 37.5 37.5 " clip-rule="nonzero"/></clipPath><clipPath id="756eee3b95"><path d="M 134 37.5 L 202 37.5 L 202 83 L 134 83 Z M 134 37.5 " clip-rule="nonzero"/></clipPath><clipPath id="0990955f82"><path d="M 214 37.5 L 337.5 37.5 L 337.5 134 L 214 134 Z M 214 37.5 " clip-rule="nonzero"/></clipPath></defs><path fill="#e4e2dd" d="M 41.144531 257.957031 C 41.25 257.921875 41.320312 257.851562 41.386719 257.785156 C 41.320312 257.785156 41.25 257.75 41.179688 257.714844 Z M 41.144531 257.957031 " fill-opacity="1" fill-rule="nonzero"/><path fill="#e4e2dd" d="M 151.238281 119.710938 C 151.339844 119.605469 151.375 119.398438 151.375 119.222656 C 151.375 119.085938 151.273438 118.804688 151.203125 118.773438 C 149.640625 118.113281 148.113281 117.765625 146.933594 119.398438 C 146.652344 119.777344 146.273438 120.023438 145.925781 120.332031 C 147.453125 120.300781 148.980469 120.300781 150.472656 120.230469 C 150.75 120.230469 151.027344 119.917969 151.238281 119.710938 Z M 151.238281 119.710938 " fill-opacity="1" fill-rule="nonzero"/><path fill="#e4e2dd" d="M 145.925781 120.332031 C 145.890625 120.332031 145.820312 120.332031 145.785156 120.332031 L 145.75 120.332031 C 145.75 120.332031 145.785156 120.367188 145.785156 120.367188 C 145.820312 120.367188 145.820312 120.367188 145.855469 120.367188 C 145.890625 120.367188 145.925781 120.367188 145.925781 120.332031 Z M 145.925781 120.332031 " fill-opacity="1" fill-rule="nonzero"/><path fill="#e4e2dd" d="M 143.25 118.773438 C 142.972656 118.738281 142.730469 118.703125 142.453125 118.667969 L 142.417969 118.703125 C 142.417969 118.703125 142.417969 118.703125 142.453125 118.738281 C 142.453125 118.738281 142.453125 118.738281 142.453125 118.703125 C 142.695312 118.738281 142.972656 118.773438 143.25 118.773438 Z M 143.25 118.773438 " fill-opacity="1" fill-rule="nonzero"/><g clip-path="url(#b31f7d0f98)"><path fill="#e4e2dd" d="M 330.972656 144.636719 C 330.554688 146.164062 329.6875 147.066406 328.300781 147.585938 C 326.214844 146.859375 324.03125 146.269531 321.773438 146.234375 C 320.28125 146.199219 318.960938 146.546875 317.847656 147.65625 C 316.113281 149.429688 314.273438 151.09375 312.574219 152.933594 C 307.085938 158.90625 302.816406 166.023438 299.308594 173.800781 C 296.914062 179.113281 294.65625 184.5625 292.367188 189.945312 C 291.742188 191.402344 291.117188 192.894531 290.628906 194.457031 C 288.476562 201.402344 286.742188 208.519531 285.632812 215.878906 C 285.109375 219.210938 284.832031 222.542969 285.109375 226.015625 C 285.179688 226.746094 285.074219 227.507812 285.007812 228.273438 C 284.9375 228.96875 284.3125 229.695312 283.789062 229.660156 C 282.195312 229.625 280.597656 229.59375 279.035156 229.488281 C 278.234375 229.417969 277.472656 229 276.882812 228.203125 C 276.847656 227.820312 276.777344 227.441406 276.8125 227.09375 C 277.230469 222.996094 278.375 219.105469 278.203125 214.90625 C 278.167969 214.386719 278.410156 213.828125 278.652344 213.34375 C 279 212.546875 279.449219 211.78125 279.832031 210.984375 C 280.980469 208.796875 281.8125 206.46875 281.847656 203.691406 C 281.882812 202.027344 282.261719 200.359375 282.644531 198.761719 C 283.511719 195.011719 284.484375 191.296875 285.421875 187.582031 C 285.875 185.8125 286.1875 184.007812 285.875 182.027344 C 285.5625 179.910156 285.945312 177.898438 286.566406 175.953125 C 287.054688 174.390625 287.503906 172.792969 287.296875 171.058594 C 287.226562 170.535156 286.949219 169.980469 286.671875 169.5625 C 286.566406 169.390625 286.046875 169.390625 285.875 169.53125 C 285.664062 169.738281 285.597656 170.15625 285.527344 170.5 C 284.660156 175.640625 283.339844 180.535156 280.945312 184.875 C 279.761719 186.992188 278.929688 189.386719 277.890625 191.644531 C 277.230469 193.101562 276.570312 194.5625 275.804688 195.914062 C 273.304688 200.289062 270.773438 204.628906 268.167969 208.898438 C 265.632812 213.066406 262.71875 216.78125 259.417969 220.078125 C 259.070312 220.425781 258.722656 220.773438 258.308594 220.980469 C 258.066406 221.085938 257.71875 220.878906 257.441406 220.773438 C 257.335938 220.738281 257.230469 220.460938 257.230469 220.324219 C 257.230469 219.765625 257.128906 219.140625 257.300781 218.65625 C 258.691406 214.765625 260.183594 210.914062 261.535156 207.023438 C 262.335938 204.804688 263.273438 202.753906 264.660156 201.019531 C 265.285156 200.253906 265.738281 199.25 266.1875 198.3125 C 267.960938 194.664062 269.660156 191.019531 272.089844 187.929688 C 272.714844 187.132812 273.097656 186.054688 273.757812 185.328125 C 275.285156 183.625 275.875 181.367188 276.429688 179.042969 C 276.984375 176.714844 276.882812 174.667969 275.25 172.6875 C 274.105469 171.300781 273.167969 169.632812 272.089844 168.140625 C 271.675781 167.550781 271.222656 166.925781 270.667969 166.472656 C 267.714844 163.90625 264.730469 161.476562 261.398438 159.808594 C 260.148438 159.183594 258.96875 158.871094 257.753906 159.773438 C 256.570312 160.640625 255.320312 161.335938 253.757812 161.128906 C 251.746094 160.816406 250.042969 161.683594 248.414062 162.757812 C 246.121094 164.289062 243.96875 166.023438 242.058594 168.140625 C 234.941406 176.058594 229.386719 185.359375 225.394531 196.125 C 225.011719 197.128906 224.664062 198.171875 224.320312 199.214844 C 224.527344 198.449219 224.734375 197.652344 224.875 196.851562 C 225.152344 195.394531 225.570312 194.007812 225.914062 192.582031 C 226.125 191.679688 226.367188 190.8125 226.4375 189.875 C 226.75 186.125 227.410156 182.480469 228.378906 178.972656 C 228.691406 177.828125 228.554688 176.75 227.929688 175.746094 C 226.886719 174.042969 226.644531 172.203125 226.75 170.257812 C 226.785156 169.703125 226.886719 169.148438 226.957031 168.59375 C 227.304688 165.363281 226.886719 162.203125 225.742188 159.078125 C 225.324219 157.933594 224.804688 157.03125 223.832031 156.546875 C 222.6875 155.988281 221.957031 154.949219 221.332031 153.800781 C 220.636719 152.585938 220.636719 151.234375 220.671875 149.914062 C 220.671875 149.117188 221.125 148.558594 221.644531 148.144531 L 221.472656 147.832031 C 221.472656 147.832031 221.574219 147.96875 221.609375 147.96875 C 222.132812 148.179688 222.582031 148.074219 222.859375 147.554688 C 223.207031 146.894531 223.3125 146.128906 223 145.402344 C 222.6875 144.707031 222.304688 144.011719 221.820312 143.527344 C 220.742188 142.414062 220.152344 141.128906 220.082031 139.5 C 220.046875 138.527344 219.734375 137.660156 219.214844 136.859375 C 218.484375 135.785156 217.828125 134.671875 217.132812 133.5625 C 213.972656 128.527344 209.839844 125.644531 204.703125 125.296875 C 201.371094 125.054688 198.035156 124.953125 194.773438 125.679688 C 192.167969 126.269531 189.566406 126.828125 186.789062 126.582031 C 184.878906 126.410156 183.074219 127.105469 181.371094 128.074219 C 178.039062 129.984375 174.671875 131.757812 171.375 133.699219 C 167.242188 136.128906 162.972656 138.285156 158.667969 140.261719 C 158.25 140.46875 157.796875 140.609375 157.347656 140.75 C 156.546875 141.027344 155.609375 140.15625 155.75 139.21875 C 155.890625 138.316406 156.097656 137.414062 156.234375 136.511719 C 156.582031 133.945312 156.964844 131.375 157.242188 128.804688 C 157.3125 128.109375 157.3125 127.070312 156.964844 126.617188 C 155.855469 125.195312 155.820312 123.457031 155.367188 121.828125 C 155.195312 121.203125 154.257812 120.613281 153.769531 120.820312 C 152.453125 121.375 151.167969 121.929688 149.847656 122.488281 L 149.847656 122.347656 C 149.464844 122.417969 149.117188 122.488281 148.738281 122.589844 L 148.804688 122.695312 C 147.730469 122.175781 146.757812 121.445312 145.925781 120.472656 C 144.710938 120.265625 143.5625 119.777344 142.523438 118.839844 C 142.140625 120.613281 141.203125 121.652344 139.605469 121.828125 C 138.496094 121.929688 137.382812 122.035156 136.308594 122.140625 C 135.507812 122.207031 134.78125 122.554688 134.292969 123.355469 C 133.738281 124.257812 133.007812 124.882812 132.210938 125.4375 C 130.753906 126.445312 130.128906 128.074219 130.164062 130.089844 C 130.164062 131.027344 130.09375 132 130.199219 132.9375 C 130.371094 134.777344 129.710938 136.234375 129.050781 137.691406 C 128.773438 138.316406 128.324219 138.875 127.90625 139.394531 C 126.34375 141.375 125.71875 143.734375 126.066406 146.582031 C 126.171875 147.519531 126.171875 148.492188 126.203125 149.429688 C 126.273438 150.988281 126.65625 152.449219 127.386719 153.800781 C 127.664062 154.289062 127.871094 154.84375 128.148438 155.328125 C 128.984375 156.789062 129.816406 158.246094 130.578125 159.566406 C 130.542969 160.121094 130.613281 160.503906 130.511719 160.851562 C 129.605469 163.800781 128.566406 166.683594 127.734375 169.667969 C 127.074219 171.996094 125.996094 173.9375 124.78125 175.847656 C 119.921875 183.382812 114.367188 190.152344 108.253906 196.296875 C 103.8125 200.8125 99.089844 204.804688 93.605469 207.582031 C 91.867188 208.449219 90.097656 209.074219 88.1875 209.210938 C 87.078125 209.28125 85.480469 208.273438 85.308594 206.644531 C 85.167969 205.324219 84.960938 204.003906 85.167969 202.6875 C 86.246094 196.089844 87.320312 189.527344 90.445312 183.9375 C 90.792969 183.347656 91.105469 182.6875 91.3125 181.992188 C 92.632812 178.035156 94.367188 174.390625 96.070312 170.675781 C 97.527344 167.445312 99.195312 164.390625 101.136719 161.578125 C 103.289062 158.488281 104.957031 154.984375 106.277344 151.234375 C 106.726562 149.984375 106.796875 148.699219 106.449219 147.34375 C 105.789062 144.777344 104.992188 142.207031 104.574219 139.566406 C 104.539062 139.394531 104.472656 139.21875 104.402344 139.046875 C 104.160156 138.492188 103.882812 137.972656 103.535156 137.589844 C 105.132812 136.410156 106.625 135.019531 107.839844 133.527344 C 109.226562 131.824219 110.511719 129.984375 112.003906 128.457031 C 114.367188 126.0625 116.308594 123.285156 117.871094 120.089844 C 119.503906 116.792969 121.171875 113.527344 122.386719 109.917969 C 122.90625 108.390625 123.460938 106.863281 123.949219 105.300781 C 124.988281 102.003906 125.753906 98.636719 125.789062 94.988281 C 125.789062 92.734375 125.859375 90.441406 126.101562 88.21875 C 126.550781 84.503906 126.585938 80.753906 127.074219 77.039062 C 127.316406 75.234375 127.316406 73.289062 126.933594 71.382812 C 126.691406 70.097656 126.550781 68.671875 126.65625 67.421875 C 126.96875 63.847656 126.585938 60.238281 126.550781 56.625 C 126.484375 51.695312 126.203125 46.765625 125.269531 41.835938 C 125.023438 40.550781 124.957031 39.230469 124.78125 37.949219 C 124.886719 37.84375 124.988281 37.738281 125.09375 37.636719 L 66.488281 37.636719 C 67.359375 38.78125 68.398438 39.789062 69.648438 40.585938 C 69.925781 40.761719 70.136719 41.105469 70.621094 41.664062 C 66.558594 48.640625 62.53125 55.308594 58.886719 62.285156 C 58.78125 62.492188 58.367188 62.492188 58.054688 62.527344 C 57.949219 62.527344 57.808594 62.25 57.742188 62.078125 C 57.082031 60.132812 57.011719 57.910156 55.65625 56.246094 C 55.136719 54.195312 54.546875 52.183594 54.164062 50.097656 C 53.78125 47.980469 53.089844 46.035156 52.046875 44.265625 C 51.386719 43.15625 50.761719 41.976562 50.207031 40.792969 C 49.6875 39.71875 49.929688 38.503906 50.902344 37.949219 C 51.039062 37.808594 51.179688 37.738281 51.316406 37.636719 L 37.5 37.636719 L 37.5 49.578125 C 38.296875 49.125 38.921875 48.398438 39.582031 47.597656 C 40 47.078125 40.589844 46.765625 41.144531 46.488281 C 41.5625 46.316406 42.082031 46.140625 42.464844 46.695312 C 43.921875 48.640625 45.070312 50.757812 45.347656 52.839844 C 45.554688 54.058594 45.625 54.820312 45.761719 55.585938 C 46.039062 56.972656 45.902344 58.222656 45.3125 59.367188 C 44.546875 60.929688 43.921875 62.632812 42.984375 64.089844 C 41.25 66.832031 39.410156 69.574219 37.5 72.285156 L 37.5 98.011719 C 37.847656 97.488281 38.195312 96.96875 38.507812 96.414062 C 39.167969 95.164062 39.722656 93.984375 40.761719 93.082031 C 41.839844 92.109375 42.636719 90.683594 43.679688 89.644531 C 44.757812 88.566406 45.695312 87.421875 46.421875 85.996094 C 47.394531 84.121094 48.714844 82.59375 49.476562 80.546875 C 49.722656 79.921875 50.277344 79.503906 50.726562 78.984375 C 50.832031 78.878906 51.074219 78.8125 51.109375 78.878906 C 51.316406 79.15625 51.628906 79.503906 51.59375 79.75 C 51.492188 80.652344 51.492188 81.796875 51.039062 82.421875 C 49.582031 84.402344 49.0625 86.898438 48.226562 89.261719 C 46.320312 94.746094 45.171875 100.511719 44.476562 106.445312 C 43.539062 114.570312 45 122.3125 49.375 129.359375 C 49.753906 129.984375 50.242188 130.542969 50.761719 130.992188 C 50.9375 131.167969 51.214844 131.167969 51.492188 131.167969 C 51.457031 131.0625 51.421875 130.957031 51.351562 130.886719 C 48.125 125.679688 48.089844 125.679688 47.046875 119.953125 C 46.910156 119.222656 46.769531 118.425781 46.804688 117.695312 C 46.839844 115.4375 46.910156 113.183594 47.046875 110.925781 C 47.082031 110.125 47.324219 109.363281 47.5 108.597656 C 48.160156 110.300781 48.503906 112.070312 48.75 113.875 C 49.027344 116.167969 49.617188 118.355469 50.207031 120.578125 C 51.628906 126.132812 54.441406 130.609375 58.226562 134.324219 C 58.851562 134.949219 59.546875 135.503906 60.136719 136.164062 C 60.34375 136.410156 60.554688 136.894531 60.484375 137.171875 C 60.414062 137.414062 60.171875 137.554688 59.929688 137.726562 C 61.210938 139.046875 62.808594 139.359375 64.335938 139.8125 C 65.449219 140.15625 66.558594 140.296875 67.636719 140.714844 C 69.335938 141.339844 71.003906 142.34375 72.738281 142.761719 C 74.441406 143.179688 76.246094 143.039062 77.980469 143.144531 C 78.292969 143.179688 78.605469 143.179688 78.953125 143.214844 C 80.515625 143.457031 82.078125 143.457031 83.535156 142.933594 C 83.257812 144.464844 82.84375 145.957031 82.113281 147.308594 C 81.695312 148.074219 81.347656 148.90625 80.933594 149.671875 C 77.390625 156.511719 73.851562 163.382812 70.273438 170.222656 C 69.960938 170.8125 69.511719 171.335938 69.058594 171.820312 C 68.78125 172.097656 68.398438 171.960938 68.226562 171.542969 C 68.015625 171.023438 67.773438 170.46875 67.808594 169.945312 C 67.84375 166.335938 67.390625 162.792969 66.941406 159.183594 C 66.628906 156.753906 65.691406 154.359375 66.039062 151.824219 C 66.109375 151.335938 65.796875 150.710938 65.585938 150.191406 C 64.613281 148.144531 63.816406 145.921875 62.601562 144.117188 C 61.246094 142.171875 59.511719 140.539062 57.878906 138.90625 C 56.492188 137.519531 54.964844 136.269531 53.503906 135.019531 C 52.046875 133.769531 50.554688 132.519531 48.851562 131.097656 C 48.160156 131.0625 47.222656 131.0625 46.25 130.921875 C 45.3125 130.820312 44.339844 130.609375 43.402344 130.402344 C 41.320312 129.917969 39.546875 130.714844 38.160156 132.171875 C 37.953125 132.382812 37.742188 132.589844 37.535156 132.832031 L 37.535156 165.988281 C 38.957031 165.570312 40.382812 165.15625 41.769531 164.738281 C 42.777344 164.460938 43.644531 164.84375 44.410156 165.710938 C 45.171875 166.542969 45.695312 167.480469 46.039062 168.628906 C 47.878906 174.703125 49.0625 180.847656 49.441406 187.167969 C 49.476562 187.929688 49.441406 188.695312 49.375 189.421875 C 49.164062 191.472656 48.992188 193.519531 49.234375 195.636719 C 49.410156 197.375 48.992188 198.96875 48.332031 200.464844 C 46.457031 204.664062 44.269531 208.621094 41.5625 212.128906 C 40.207031 213.796875 38.855469 215.496094 37.5 217.128906 L 37.5 256.429688 C 39.097656 255.386719 40.625 254.207031 42.222656 253.097656 C 42.359375 252.992188 42.535156 252.957031 42.671875 252.992188 C 42.984375 253.027344 43.367188 253.0625 43.574219 253.269531 C 43.75 253.476562 43.886719 254.035156 43.785156 254.277344 C 43.261719 255.699219 42.570312 256.984375 41.421875 257.75 C 41.667969 257.816406 41.945312 257.851562 42.152344 257.992188 C 43.054688 258.582031 43.226562 259.761719 42.5 260.179688 C 41.804688 260.59375 41.042969 260.839844 40.382812 261.253906 C 39.097656 262.054688 38.089844 263.09375 38.160156 265.074219 C 38.195312 265.839844 37.984375 266.496094 37.570312 266.949219 L 37.570312 337.601562 L 51.421875 337.601562 C 53.46875 336.351562 55.34375 334.890625 57.253906 333.363281 C 58.921875 332.011719 60.96875 331.59375 62.949219 331.109375 C 63.261719 331.039062 63.957031 331.558594 64.128906 332.011719 C 64.199219 332.183594 64.300781 332.359375 64.335938 332.53125 C 64.789062 334.511719 65.550781 336.175781 66.59375 337.601562 L 125.128906 337.601562 C 125.582031 337.148438 125.960938 336.765625 126.414062 336.488281 C 126.933594 336.140625 127.558594 336.003906 128.148438 335.796875 C 128.878906 335.515625 129.746094 335.484375 130.371094 335.03125 C 133.21875 332.914062 136.621094 331.769531 138.910156 328.710938 C 139.222656 328.332031 139.675781 328.085938 140.058594 327.808594 C 143.21875 325.621094 146.308594 323.226562 149.292969 320.761719 C 149.328125 320.726562 149.675781 321.003906 149.675781 321.039062 C 149.328125 322.046875 149.085938 323.15625 148.5625 324.027344 C 145.890625 328.296875 143.632812 332.878906 141.585938 337.636719 L 161.792969 337.636719 C 163.042969 334.511719 165.195312 332.082031 166.722656 329.199219 C 167.9375 326.90625 169.394531 324.789062 171.476562 323.402344 C 172 323.054688 172.484375 322.394531 172.625 321.734375 C 172.96875 319.859375 173.59375 318.261719 174.636719 316.875 C 175.644531 315.519531 176.269531 313.820312 177.519531 312.707031 C 177.621094 312.601562 177.65625 312.394531 177.761719 312.257812 C 177.933594 311.976562 177.449219 310.972656 177.101562 310.902344 C 176.617188 310.796875 176.164062 310.660156 175.679688 310.589844 C 173.734375 310.347656 171.859375 309.859375 170.261719 308.160156 C 169.914062 307.777344 169.429688 307.535156 168.976562 307.292969 C 166.964844 306.109375 164.949219 305.796875 162.9375 306.734375 C 161.792969 307.257812 160.714844 307.984375 159.570312 308.507812 C 159.257812 308.644531 158.804688 308.542969 158.421875 308.507812 C 160.230469 305.660156 162.136719 302.8125 163.976562 299.964844 C 164.636719 298.960938 165.261719 297.917969 165.75 296.773438 C 166.757812 294.515625 167.832031 292.328125 169.222656 290.347656 C 170.957031 287.816406 172.484375 285.105469 173.769531 282.15625 C 174.324219 280.871094 175.15625 279.761719 175.886719 278.578125 C 176.546875 277.539062 177.101562 276.496094 177.277344 275.140625 C 177.449219 273.578125 178.039062 272.398438 179.183594 271.566406 C 179.636719 271.253906 179.671875 270.246094 179.984375 269.65625 C 180.085938 269.449219 180.644531 269.34375 180.78125 269.519531 C 183.664062 272.78125 185.332031 276.671875 185.816406 281.21875 C 186.578125 288.820312 186.890625 296.390625 186.960938 303.957031 C 187.03125 310.832031 186.300781 317.464844 185.296875 324.058594 C 184.671875 328.121094 183.421875 331.90625 182.238281 335.691406 C 182.03125 336.386719 181.753906 337.046875 181.441406 337.703125 L 201.40625 337.703125 C 202.308594 335.726562 203.140625 333.675781 203.871094 331.558594 C 204.980469 328.433594 205.882812 325.242188 206.683594 322.011719 C 207.0625 322.84375 207.515625 323.679688 208.035156 324.476562 C 209.804688 327.324219 211.820312 329.960938 214.042969 332.359375 C 216.855469 335.34375 219.839844 337.636719 223.625 337.601562 C 223.867188 337.601562 224.074219 337.667969 224.320312 337.738281 L 255.425781 337.738281 C 255.496094 337.496094 255.601562 337.289062 255.667969 337.046875 C 256.328125 335.03125 257.683594 333.886719 259.382812 333.226562 C 261.917969 332.289062 264.382812 331.246094 266.917969 330.378906 C 270.945312 328.957031 274.867188 327.253906 278.445312 324.71875 C 283.0625 322.914062 286.878906 319.476562 291.082031 316.875 C 291.777344 316.457031 292.46875 316.039062 293.199219 315.761719 C 295.144531 315.066406 297.089844 314.445312 299.066406 313.820312 C 300.144531 313.472656 301.253906 313.679688 302.332031 314.339844 C 303.511719 315.066406 304.65625 315.761719 305.835938 316.457031 C 307.886719 317.707031 309.828125 319.164062 311.566406 321.039062 C 314.414062 324.058594 317.398438 326.90625 320.28125 329.824219 C 320.90625 330.449219 320.972656 331.699219 320.382812 332.324219 C 318.71875 334.128906 317.050781 335.933594 315.382812 337.703125 L 337.464844 337.703125 L 337.464844 267.019531 C 337.328125 267.191406 337.1875 267.332031 337.015625 267.433594 C 335.207031 268.648438 334.238281 270.800781 332.953125 272.574219 C 332.464844 273.234375 332.222656 274.171875 331.945312 275.039062 C 331.667969 275.90625 331.460938 276.773438 330.835938 277.363281 C 329.585938 278.511719 328.925781 280.210938 328.335938 281.914062 C 327.433594 284.445312 326.910156 287.191406 325.347656 289.308594 C 323.683594 294.550781 322.433594 299.863281 323.855469 305.796875 C 323.960938 306.179688 323.996094 306.5625 324.0625 306.945312 C 324.132812 307.464844 323.683594 308.054688 323.265625 307.984375 C 321.355469 307.707031 319.445312 307.359375 317.675781 306.179688 C 315.941406 305.035156 314.03125 304.480469 312.328125 303.195312 C 311.53125 302.605469 310.488281 302.535156 309.550781 302.222656 C 308.925781 302.015625 308.300781 301.769531 307.675781 301.492188 C 306.773438 301.113281 306.289062 299.792969 306.671875 298.648438 C 306.773438 298.300781 306.808594 297.882812 306.984375 297.605469 C 308.511719 294.898438 310.210938 292.328125 311.566406 289.480469 C 311.773438 289.03125 312.121094 288.578125 312.503906 288.300781 C 314.828125 286.355469 316.21875 283.476562 317.605469 280.664062 C 318.230469 279.378906 318.890625 278.199219 319.722656 277.121094 C 320.246094 276.460938 320.695312 275.699219 321.042969 274.898438 C 323.855469 268.683594 327.847656 263.71875 332.535156 259.484375 C 332.777344 259.277344 332.988281 258.964844 333.265625 258.824219 C 334.757812 258.164062 336.144531 257.332031 337.5 256.429688 L 337.5 217.128906 C 337.359375 217.300781 337.222656 217.441406 337.082031 217.613281 C 334.722656 220.496094 331.980469 222.855469 329.132812 225.007812 C 326.945312 226.640625 324.375 227.613281 321.808594 228.378906 C 321.007812 228.621094 320.175781 227.925781 320.003906 226.953125 C 319.933594 226.570312 319.828125 226.191406 319.792969 225.84375 C 319.792969 222.648438 319.792969 219.453125 319.792969 216.296875 C 319.828125 213.066406 320.003906 209.90625 320.59375 206.816406 C 321.007812 204.664062 321.113281 202.375 320.835938 200.082031 C 320.695312 198.902344 320.90625 197.824219 321.390625 196.851562 C 322.433594 194.804688 323.058594 192.546875 323.507812 190.152344 C 323.71875 189.074219 324.0625 188.035156 324.339844 186.992188 C 324.515625 186.296875 324.898438 185.570312 324.863281 184.875 C 324.585938 180.152344 327.085938 176.925781 328.714844 173.3125 C 329.722656 171.09375 331.25 169.21875 332.328125 167.515625 C 334.097656 166.996094 335.796875 166.507812 337.464844 166.023438 L 337.464844 132.867188 C 335.484375 134.949219 333.578125 137.101562 332.429688 140.054688 C 331.839844 141.476562 331.390625 143.074219 330.972656 144.636719 Z M 149.988281 129.847656 C 150.160156 129.636719 150.542969 129.464844 150.785156 129.570312 C 151.132812 129.671875 151.203125 130.125 150.925781 130.4375 C 150.714844 130.679688 150.4375 130.820312 150.195312 130.992188 C 150.054688 130.921875 149.8125 130.855469 149.8125 130.785156 C 149.847656 130.472656 149.847656 130.054688 149.988281 129.847656 Z M 149.675781 122.417969 C 149.535156 122.832031 149.398438 123.25 149.257812 123.703125 C 149.085938 123.355469 148.875 122.972656 148.667969 122.625 C 149.015625 122.554688 149.363281 122.488281 149.675781 122.417969 Z M 149.257812 123.769531 C 149.257812 123.804688 149.257812 123.804688 149.222656 123.839844 L 149.015625 123.703125 C 149.015625 123.703125 149.152344 123.738281 149.257812 123.769531 Z M 136.480469 140.503906 L 136.515625 140.957031 L 136.167969 140.75 Z M 104.957031 222.023438 C 105.0625 222.023438 105.269531 222.164062 105.339844 222.300781 C 105.410156 222.441406 105.476562 222.753906 105.410156 222.789062 C 105.199219 222.960938 104.851562 223.273438 104.714844 223.167969 C 104.367188 222.925781 104.089844 222.507812 103.777344 222.164062 C 104.160156 222.09375 104.574219 222.023438 104.957031 222.023438 Z M 96 226.675781 C 96.035156 226.675781 96.105469 226.917969 96.140625 227.058594 C 95.894531 227.09375 95.6875 227.160156 95.445312 227.160156 C 95.410156 227.160156 95.339844 226.917969 95.304688 226.78125 C 95.550781 226.746094 95.757812 226.675781 96 226.675781 Z M 79.058594 122.207031 C 78.015625 121.722656 77.390625 120.890625 77.285156 119.675781 C 77.148438 118.148438 77.007812 116.652344 76.90625 115.125 C 76.871094 114.746094 76.871094 114.328125 77.007812 114.050781 C 78.640625 111.03125 78.640625 107.347656 79.40625 103.945312 C 79.996094 101.273438 80.203125 98.460938 81.28125 95.960938 C 81.695312 94.988281 81.90625 93.878906 82.007812 92.769531 C 82.460938 87.699219 83.78125 82.976562 84.820312 78.117188 C 85.097656 76.867188 85.445312 75.617188 85.621094 74.332031 C 85.828125 72.804688 86.417969 71.589844 87.007812 70.269531 C 88.363281 67.390625 89.648438 64.472656 90.757812 61.488281 C 91.835938 58.640625 93.050781 55.898438 94.644531 53.433594 C 94.925781 53.015625 95.203125 52.5625 95.515625 52.148438 C 96.695312 50.6875 98.328125 47.703125 98.882812 46.003906 C 99.609375 43.78125 100.339844 41.558594 101.070312 39.335938 C 101.207031 38.917969 101.519531 38.851562 101.867188 39.058594 C 102.007812 39.128906 102.179688 39.230469 102.25 39.371094 C 102.492188 39.855469 102.804688 40.378906 102.910156 40.933594 C 103.359375 42.773438 103.742188 44.648438 104.160156 46.523438 C 105.445312 54.089844 105.757812 61.660156 105.824219 69.261719 C 105.824219 70.410156 105.824219 71.554688 105.929688 72.664062 C 106.660156 81.207031 105.132812 89.121094 103.046875 96.933594 C 102.910156 97.453125 102.734375 97.976562 102.527344 98.460938 C 99.644531 105.128906 96.832031 111.898438 92.390625 117.277344 C 91.210938 118.703125 89.960938 120.054688 88.570312 121.167969 C 85.722656 123.390625 82.53125 123.804688 79.058594 122.207031 Z M 39.445312 278.996094 C 39.234375 279.101562 38.890625 278.960938 38.644531 278.890625 C 38.578125 278.855469 38.507812 278.511719 38.542969 278.40625 C 38.75 278.023438 39.027344 277.675781 39.269531 277.363281 C 39.511719 277.539062 39.6875 277.574219 39.792969 277.710938 C 40.035156 278.128906 39.929688 278.753906 39.445312 278.996094 Z M 39.375 274.136719 C 39.269531 273.859375 39.234375 273.371094 39.375 273.164062 C 39.480469 272.988281 39.964844 272.957031 40.136719 273.128906 C 40.730469 273.71875 41.285156 274.378906 41.839844 275.039062 C 41.839844 275.140625 41.839844 275.246094 41.839844 275.351562 C 41.839844 275.246094 41.839844 275.140625 41.804688 275.039062 C 41.214844 274.96875 40.589844 274.96875 40.035156 274.828125 C 39.824219 274.761719 39.511719 274.414062 39.375 274.136719 Z M 85.410156 301.769531 C 85.132812 304.339844 84.855469 306.910156 84.578125 309.480469 C 84.472656 310.277344 83.640625 310.625 83.15625 310.136719 C 82.667969 309.652344 82.183594 309.097656 81.695312 308.574219 C 81.070312 307.949219 80.410156 307.359375 79.785156 306.734375 C 79.160156 306.109375 79.128906 305 79.753906 304.269531 C 80.066406 303.890625 80.378906 303.4375 80.757812 303.195312 C 82.078125 302.363281 83.46875 301.5625 84.648438 300.867188 C 85.238281 301.078125 85.445312 301.355469 85.410156 301.769531 Z M 92.113281 278.890625 C 91.695312 279.898438 91.210938 280.765625 90.445312 281.460938 C 89.230469 282.539062 88.121094 283.820312 86.835938 284.828125 C 83.085938 287.710938 79.335938 290.558594 75.515625 293.265625 C 73.675781 294.585938 71.664062 295.558594 69.753906 296.738281 C 68.398438 297.570312 67.046875 298.4375 65.65625 299.304688 C 64.40625 300.070312 63.15625 300.660156 61.628906 300.519531 C 59.304688 300.3125 57.394531 301.285156 55.554688 302.847656 C 51.875 305.972656 47.636719 306.839844 42.949219 305.625 C 41.910156 305.347656 41.25 304.617188 40.832031 303.402344 C 40.242188 301.738281 40.035156 300 40.242188 298.335938 C 40.9375 292.988281 40.972656 287.433594 43.019531 282.539062 C 43.75 277.886719 45.796875 273.960938 47.394531 269.796875 C 48.089844 267.957031 49.0625 266.289062 50.066406 264.691406 C 51.457031 262.46875 52.566406 260.109375 53.46875 257.539062 C 54.234375 255.351562 55.066406 253.132812 56.351562 251.292969 C 56.734375 250.769531 57.046875 250.042969 57.152344 249.347656 C 57.394531 247.820312 58.054688 246.640625 58.851562 245.492188 C 59.023438 245.214844 59.09375 244.832031 59.164062 244.484375 C 59.582031 242.785156 58.191406 240.769531 56.734375 241.050781 C 54.71875 241.429688 52.742188 242.019531 50.726562 242.472656 C 50.277344 242.578125 49.789062 242.542969 49.339844 242.367188 C 49.097656 242.300781 48.785156 241.847656 48.75 241.570312 C 48.644531 240.597656 48.785156 239.589844 49.375 239 C 50.414062 237.925781 51.144531 236.5 52.046875 235.285156 C 53.714844 233.097656 54.964844 230.667969 55.933594 227.890625 C 56.769531 225.496094 58.121094 223.515625 59.929688 222.023438 C 60.34375 221.675781 61.351562 221.640625 61.734375 222.023438 C 62.601562 222.925781 63.503906 223.828125 64.371094 224.730469 C 68.574219 229.175781 73.363281 231.15625 78.675781 230.910156 C 80.410156 230.84375 82.148438 230.632812 83.882812 230.703125 C 85.933594 230.773438 88.015625 231.050781 90.515625 231.292969 C 92.355469 230.21875 94.785156 229.453125 97.285156 229.035156 C 102.042969 228.308594 106.171875 225.910156 110.410156 223.726562 C 110.824219 223.515625 111.34375 223.34375 111.589844 222.925781 C 112.976562 220.566406 115.371094 219.976562 117.351562 218.65625 C 118.566406 217.855469 119.851562 217.058594 120.582031 215.636719 C 121.554688 213.691406 123.113281 212.511719 124.433594 210.984375 C 127.488281 207.40625 130.542969 203.832031 133.601562 200.253906 C 135.335938 196.714844 138.078125 194.285156 140.265625 191.230469 C 140.542969 190.847656 140.996094 190.570312 141.410156 190.394531 C 141.65625 190.292969 142.210938 190.535156 142.246094 190.707031 C 142.765625 193.101562 143.808594 195.359375 143.738281 197.894531 C 143.703125 199.003906 143.808594 200.1875 144.050781 201.296875 C 145.371094 207.199219 147.453125 212.613281 151.617188 216.746094 C 152.140625 217.234375 152.589844 217.824219 153.078125 218.378906 C 153.390625 218.726562 153.355469 219.628906 153.042969 219.871094 C 152 220.636719 150.960938 221.433594 149.917969 222.164062 C 149.222656 222.648438 148.460938 222.441406 147.730469 221.675781 C 147.589844 221.539062 147.488281 221.398438 147.382812 221.261719 C 145.578125 218.691406 143.21875 218.238281 140.785156 218.449219 C 137.246094 218.761719 134.121094 220.355469 131.238281 222.542969 C 125.648438 226.816406 120.71875 231.953125 116.242188 237.75 C 114.191406 240.425781 111.867188 242.855469 109.886719 245.597656 C 104.75 252.644531 100.269531 260.25 96.589844 268.546875 C 95.0625 272.050781 93.570312 275.453125 92.113281 278.890625 Z M 56.214844 242.785156 C 56.527344 242.644531 56.734375 242.925781 56.769531 243.339844 C 56.769531 244 56.457031 244.484375 56.074219 244.3125 C 55.96875 244.277344 55.796875 244.105469 55.761719 243.964844 C 55.621094 243.445312 55.761719 242.992188 56.214844 242.785156 Z M 144.570312 177.964844 C 144.710938 177.757812 145.023438 177.6875 145.300781 177.585938 C 145.4375 178.070312 145.613281 178.554688 145.683594 179.078125 C 146.027344 180.882812 145.996094 180.882812 147.453125 180.882812 C 147.765625 180.882812 148.078125 180.847656 148.390625 180.917969 C 148.492188 180.953125 148.667969 181.160156 148.703125 181.300781 C 148.738281 181.4375 148.773438 181.75 148.703125 181.820312 C 147.488281 182.863281 146.273438 183.9375 144.988281 184.875 C 144.640625 185.117188 144.085938 185.046875 143.632812 184.945312 C 143.390625 184.875 142.972656 184.355469 143.007812 184.179688 C 143.425781 182.027344 143.5625 179.804688 144.570312 177.964844 Z M 144.535156 147.414062 L 144.882812 147.585938 L 144.570312 147.832031 Z M 151.964844 162.132812 C 152.070312 162.101562 152.3125 162.167969 152.382812 162.273438 C 152.554688 162.550781 152.695312 162.898438 152.765625 163.246094 C 152.800781 163.417969 152.730469 163.628906 152.660156 163.765625 C 150.75 167.480469 148.839844 171.160156 146.933594 174.875 C 146.445312 173.660156 146.339844 172.375 146.863281 171.230469 C 147.523438 169.773438 147.871094 168.210938 148.214844 166.578125 C 148.703125 164.355469 150.089844 162.863281 151.964844 162.132812 Z M 149.429688 156.371094 C 149.777344 155.539062 150.367188 154.949219 151.203125 154.84375 C 151.445312 154.808594 151.828125 155.121094 151.964844 155.363281 C 152.105469 155.640625 152.140625 156.265625 152 156.371094 C 151.375 156.824219 150.679688 157.171875 150.195312 157.484375 C 149.8125 157.378906 149.535156 157.378906 149.535156 157.308594 C 149.429688 156.996094 149.328125 156.578125 149.429688 156.371094 Z M 146.898438 175.085938 C 146.652344 176.125 146.480469 177.238281 145.371094 177.445312 C 145.089844 175.433594 145.195312 175.257812 146.898438 175.085938 Z M 146.410156 195.671875 L 146.132812 195.535156 L 146.375 195.359375 Z M 158.734375 309.097656 C 158.109375 309.375 158.320312 308.957031 158.390625 308.679688 C 158.492188 308.820312 158.632812 308.957031 158.734375 309.097656 Z M 160.4375 265.144531 C 160.296875 266.253906 160.089844 267.398438 159.636719 268.304688 C 158.078125 271.425781 156.828125 274.796875 154.777344 277.539062 C 150.613281 283.09375 146.652344 288.890625 142.59375 294.585938 C 139.398438 299.027344 135.960938 303.125 132.105469 306.734375 C 130.441406 308.296875 128.671875 309.792969 126.863281 311.144531 C 124.085938 313.195312 120.894531 314.0625 117.734375 315.136719 C 117.316406 315.277344 116.796875 315.277344 116.308594 315.171875 C 114.574219 314.824219 112.804688 314.476562 111.066406 314.0625 C 110.128906 313.851562 109.226562 312.636719 109.226562 311.597656 C 109.160156 307.984375 109.472656 304.515625 110.6875 301.25 C 112.109375 297.398438 113.324219 293.402344 114.644531 289.480469 C 114.992188 288.4375 115.304688 287.398438 115.753906 286.460938 C 116.96875 283.925781 117.941406 281.21875 118.949219 278.542969 C 120.582031 274.171875 122.664062 270.074219 125.164062 266.429688 C 126.828125 264.03125 128.253906 261.464844 129.746094 258.929688 C 130.613281 257.4375 131.585938 256.011719 132.558594 254.625 C 133.289062 253.582031 134.257812 253.132812 135.507812 253.6875 C 136.273438 254.035156 137.035156 254.347656 137.800781 254.660156 C 139.640625 255.457031 141.238281 255.109375 142.625 253.652344 C 143.773438 252.472656 145.058594 251.429688 146.132812 250.144531 C 147.660156 248.304688 149.535156 247.089844 151.480469 245.910156 C 152.867188 245.078125 154.257812 244.277344 155.679688 243.617188 C 157.554688 242.75 158.457031 243.445312 159.082031 245.457031 C 159.429688 246.535156 159.605469 247.679688 159.847656 248.824219 C 161.234375 254.3125 161.0625 259.726562 160.4375 265.144531 Z M 160.574219 150.675781 C 160.054688 151.613281 159.394531 152.308594 158.390625 152.484375 C 157.070312 152.726562 156.339844 153.769531 155.820312 155.050781 C 155.644531 155.050781 155.507812 155.050781 155.332031 154.984375 C 154.1875 154.53125 153.703125 153.800781 154.117188 153.039062 C 155.230469 150.851562 154.847656 148.457031 154.605469 146.058594 C 154.5 145.191406 153.425781 144.566406 152.765625 144.984375 C 152.625 145.054688 152.519531 145.191406 152.417969 145.296875 C 152.175781 145.503906 151.929688 145.714844 151.6875 145.921875 C 150.367188 144.394531 148.804688 141.824219 147.835938 139.601562 L 147.835938 139.742188 C 146.410156 139.464844 144.988281 139.601562 143.632812 138.664062 C 142.90625 138.179688 142.523438 137.035156 142.90625 136.234375 C 143.355469 135.261719 144.15625 134.847656 144.777344 135.261719 C 145.058594 135.472656 145.230469 135.851562 145.542969 136.027344 C 146.550781 136.617188 147.765625 135.816406 148.703125 136.964844 C 149.398438 137.796875 150.125 138.5625 150.890625 139.359375 C 150.992188 139.464844 151.304688 139.5 151.304688 139.429688 C 151.445312 139.152344 151.617188 138.804688 151.550781 138.527344 C 151.375 137.589844 151.0625 136.6875 150.925781 135.75 C 150.890625 135.472656 151.0625 134.949219 151.273438 134.847656 C 151.445312 134.742188 151.828125 135.019531 152.070312 135.226562 C 152.832031 135.992188 153.667969 136.6875 153.875 137.9375 C 154.5 141.859375 157.140625 143.527344 159.707031 145.226562 C 160.4375 145.714844 161.167969 146.128906 161.894531 146.582031 C 162.035156 146.683594 162.136719 146.824219 162.382812 147.101562 C 161.792969 148.246094 161.234375 149.496094 160.574219 150.675781 Z M 163.320312 143.664062 C 163.214844 143.628906 163.042969 143.386719 163.074219 143.28125 C 163.109375 142.867188 163.386719 142.761719 163.664062 143.074219 C 163.839844 143.246094 163.910156 143.527344 164.011719 143.804688 C 163.769531 143.769531 163.5625 143.769531 163.320312 143.664062 Z M 164.949219 144.046875 C 165.089844 144.082031 165.296875 144.183594 165.296875 144.289062 C 165.402344 144.707031 165.195312 144.84375 164.8125 144.566406 C 164.636719 144.429688 164.464844 144.21875 164.324219 144.011719 C 164.535156 144.011719 164.742188 144.011719 164.949219 144.046875 Z M 164.847656 156.511719 C 164.636719 156.335938 164.535156 155.921875 164.359375 155.640625 C 164.429688 155.191406 164.707031 154.984375 165.054688 155.226562 C 165.261719 155.398438 165.507812 155.816406 165.507812 156.128906 C 165.539062 156.546875 165.195312 156.753906 164.847656 156.511719 Z M 167.066406 151.894531 C 166.964844 151.925781 166.789062 152.03125 166.722656 151.996094 C 166.410156 151.753906 166.410156 151.476562 166.722656 151.335938 C 166.789062 151.300781 167 151.371094 167.066406 151.476562 C 167.136719 151.546875 167.066406 151.753906 167.066406 151.894531 Z M 170.089844 140.054688 C 169.984375 140.089844 169.566406 139.671875 169.535156 139.394531 C 169.429688 138.839844 169.847656 138.351562 170.332031 138.457031 C 170.574219 138.492188 170.75 138.875 171.09375 139.21875 C 170.75 139.53125 170.4375 139.878906 170.089844 140.054688 Z M 221.195312 205.636719 C 222.339844 204.074219 223.207031 202.304688 223.832031 200.429688 C 222.859375 203.65625 221.992188 206.921875 221.054688 210.148438 C 220.707031 211.363281 220.394531 212.546875 220.082031 213.761719 C 220.082031 213.691406 220.046875 213.621094 220.046875 213.550781 C 219.769531 212.476562 219.25 211.46875 218.9375 210.566406 C 219.386719 208.519531 220.1875 207.023438 221.195312 205.636719 Z M 211.125 131.511719 C 212.304688 132.726562 213.488281 133.910156 214.632812 135.125 C 215.777344 136.375 216.019531 138.144531 215.328125 139.671875 C 214.910156 140.609375 214.355469 140.75 213 140.226562 C 212.863281 139.949219 212.722656 139.707031 212.617188 139.394531 C 212.582031 139.253906 212.6875 139.082031 212.722656 138.941406 C 210.8125 136.753906 210.257812 134.289062 211.125 131.511719 Z M 208.382812 131.097656 C 208.589844 132.207031 208.800781 133.285156 209.007812 134.394531 C 209.460938 136.859375 208.589844 137.660156 206.371094 136.789062 C 206.089844 136.6875 205.746094 136.511719 205.535156 136.234375 C 205.363281 135.992188 205.222656 135.472656 205.328125 135.261719 C 205.605469 134.636719 205.988281 134.117188 206.335938 133.5625 C 205.882812 132.796875 205.433594 132 204.980469 131.234375 C 204.910156 131.097656 204.773438 130.992188 204.667969 130.886719 C 205.570312 130.644531 206.4375 130.367188 207.339844 130.125 C 207.6875 130.054688 208.277344 130.609375 208.382812 131.097656 Z M 204.148438 127.140625 C 204.320312 126.964844 204.703125 127.105469 204.980469 127.070312 C 204.980469 127.382812 205.085938 127.832031 204.945312 128.042969 C 204.773438 128.285156 204.425781 128.355469 204.148438 128.527344 C 204.148438 128.527344 204.148438 128.5625 204.148438 128.5625 C 203.9375 128.042969 203.765625 127.519531 204.148438 127.140625 Z M 204.632812 130.921875 C 204.632812 130.921875 204.597656 130.886719 204.632812 130.921875 C 204.527344 130.507812 204.460938 130.160156 204.390625 129.777344 C 204.460938 130.160156 204.5625 130.542969 204.632812 130.921875 Z M 198.972656 127.902344 C 199.53125 127.625 200.085938 127.347656 200.675781 127.207031 C 200.882812 127.171875 201.300781 127.519531 201.40625 127.796875 C 201.75 128.839844 202.203125 130.054688 201.300781 130.855469 C 200.050781 131.964844 199.285156 133.421875 198.800781 135.191406 C 198.660156 135.679688 198.246094 135.992188 197.933594 136.410156 C 197.722656 134.742188 197.480469 133.074219 197.308594 131.410156 C 197.167969 129.777344 197.722656 128.5625 198.972656 127.902344 Z M 196.164062 133.351562 C 196.164062 133.492188 196.300781 133.664062 196.371094 133.804688 C 196.195312 133.5625 195.988281 133.285156 195.988281 133.039062 C 195.953125 132.660156 196.128906 132.761719 196.164062 133.351562 Z M 196.09375 134.257812 C 196.164062 134.117188 196.300781 134.011719 196.441406 133.910156 C 196.960938 134.777344 197.480469 135.574219 198.003906 136.410156 C 197.550781 136.269531 197.066406 136.128906 196.613281 135.957031 C 195.78125 135.644531 195.675781 135.191406 196.09375 134.257812 Z M 192.726562 129.011719 C 193.105469 128.945312 193.558594 129.359375 193.941406 129.636719 C 194.007812 129.671875 194.042969 130.019531 194.007812 130.160156 C 193.800781 130.714844 193.316406 130.855469 192.863281 130.644531 C 192.34375 130.402344 191.824219 130.054688 191.300781 129.707031 C 191.789062 129.429688 192.238281 129.117188 192.726562 129.011719 Z M 181.335938 139.011719 C 181.511719 139.84375 181.582031 140.679688 181.304688 141.476562 C 181.164062 141.894531 180.921875 142.03125 180.609375 141.753906 C 180.503906 141.652344 180.46875 141.40625 180.46875 141.234375 C 180.46875 140.332031 180.886719 139.636719 181.335938 139.011719 Z M 172.101562 150.710938 C 172.136719 150.574219 172.3125 150.363281 172.414062 150.363281 C 172.726562 150.363281 173.039062 150.46875 173.316406 150.574219 C 173.421875 150.609375 173.492188 150.886719 173.59375 151.023438 C 173.628906 151.476562 173.492188 151.753906 173.109375 151.753906 C 172.519531 151.71875 172 151.164062 172.101562 150.710938 Z M 171.753906 156.265625 C 172.03125 155.609375 172.691406 155.46875 173.316406 155.746094 C 173.976562 156.058594 174.464844 156.71875 174.394531 157.378906 C 174.359375 157.65625 174.082031 157.96875 173.839844 158.039062 C 173.59375 158.140625 173.25 158.039062 172.9375 158.003906 C 172.9375 158.003906 172.9375 158.039062 172.9375 158.039062 C 172.554688 157.761719 172.171875 157.515625 171.894531 157.203125 C 171.71875 157.066406 171.652344 156.511719 171.753906 156.265625 Z M 172.03125 160.710938 C 172.34375 159.949219 172.65625 159.183594 172.96875 158.417969 C 173.074219 159.460938 172.761719 160.226562 172.03125 160.710938 Z M 171.339844 192.6875 C 171.6875 189.734375 172.03125 186.75 173.039062 184.042969 C 173.214844 183.554688 173.421875 183.035156 173.527344 182.480469 C 174.496094 176.542969 176.929688 171.4375 179.394531 166.40625 C 179.808594 165.570312 180.019531 164.773438 180.019531 163.800781 C 179.949219 160.816406 181.023438 158.316406 182.378906 156.128906 C 183.558594 154.21875 184.707031 152.273438 185.675781 150.191406 C 186.199219 149.082031 186.996094 148.144531 187.484375 146.996094 C 188.765625 143.941406 191.164062 143.351562 193.765625 143.214844 C 194.390625 143.179688 195.050781 143.351562 195.675781 143.59375 C 196.441406 143.871094 197.167969 144.394531 197.933594 144.707031 C 200.191406 145.609375 201.472656 147.621094 202.097656 150.15625 C 202.550781 151.996094 203 153.800781 203.417969 155.640625 C 203.9375 157.828125 203.9375 160.15625 204.113281 162.445312 C 204.214844 163.765625 204.25 165.085938 204.285156 166.441406 C 204.320312 166.996094 204.390625 167.621094 204.25 168.140625 C 203.660156 171.023438 203.105469 173.9375 202.410156 176.75 C 201.613281 180.015625 200.050781 182.652344 197.863281 184.839844 C 194.21875 188.484375 190.261719 191.609375 186.335938 194.804688 C 184.496094 196.296875 182.273438 196.574219 179.359375 197.476562 C 179.289062 197.511719 178.351562 197.789062 177.414062 197.894531 C 176.476562 198 175.503906 198 174.566406 197.859375 C 171.894531 197.410156 170.957031 195.949219 171.339844 192.6875 Z M 187.203125 230.910156 C 186.960938 231.363281 186.753906 231.847656 186.476562 232.265625 C 184.984375 234.523438 183.628906 236.917969 181.648438 239.523438 C 180.992188 238.375 180.609375 237.785156 180.296875 237.125 C 179.117188 234.558594 177.589844 232.265625 175.714844 230.320312 C 175.367188 229.972656 175.15625 229.382812 174.949219 228.898438 C 174.878906 228.792969 174.984375 228.550781 175.054688 228.410156 C 175.121094 228.273438 175.261719 228.097656 175.367188 228.097656 C 175.679688 228.066406 175.992188 228.132812 176.304688 228.167969 C 179.289062 228.691406 182.238281 229.765625 185.261719 229.347656 C 185.675781 229.28125 186.199219 229.625 186.648438 229.730469 C 187.101562 229.800781 187.449219 230.496094 187.203125 230.910156 Z M 203.28125 263.546875 C 201.925781 261.464844 200.191406 260.003906 198.175781 259 C 197.863281 258.859375 197.550781 258.722656 197.308594 258.476562 C 196.753906 257.992188 196.300781 257.296875 196.40625 256.535156 C 196.613281 254.867188 196.820312 253.199219 197.308594 251.636719 C 198.941406 246.394531 201.371094 241.777344 204.390625 237.613281 C 205.222656 236.464844 206.160156 235.632812 207.6875 236.605469 C 208.242188 236.953125 208.972656 237.089844 209.5625 236.988281 C 211.125 236.742188 212.757812 236.847656 214.144531 235.945312 C 214.945312 234.589844 215.742188 233.273438 216.542969 231.953125 C 216.820312 231.5 217.167969 231.085938 217.234375 230.5625 C 217.269531 230.390625 217.304688 230.25 217.339844 230.078125 C 216.992188 233.964844 217.410156 237.714844 218.347656 241.535156 C 219.597656 246.535156 222.304688 250.042969 226.296875 252.195312 C 227.199219 252.679688 228.101562 253.0625 229.003906 253.445312 C 225.1875 257.261719 220.8125 260.074219 216.125 262.402344 C 213.519531 263.683594 210.847656 264.554688 208.105469 265.351562 C 206.265625 265.90625 204.5625 265.527344 203.28125 263.546875 Z M 214.804688 278.890625 C 212.167969 282.953125 210.292969 287.503906 208.695312 292.257812 C 208.695312 292.257812 208.695312 292.222656 208.695312 292.222656 C 208.488281 291.738281 208.488281 291.078125 208.554688 290.523438 C 208.9375 287.917969 208.765625 285.246094 208.695312 282.605469 C 208.660156 281.460938 209.113281 280.453125 209.980469 279.863281 C 211.054688 279.136719 212.132812 278.476562 213.382812 278.164062 C 214.320312 277.953125 215.222656 277.640625 216.089844 277.296875 C 215.605469 277.710938 215.1875 278.265625 214.804688 278.890625 Z M 302.746094 256.742188 C 302.363281 257.75 301.949219 258.71875 301.566406 259.691406 C 300.699219 261.914062 300.246094 264.207031 301.429688 266.742188 C 301.773438 267.503906 301.566406 268.269531 301.183594 268.859375 C 300.734375 269.585938 300.210938 270.28125 299.65625 270.90625 C 298.128906 272.644531 297.992188 274.726562 298.753906 277.121094 C 298.859375 277.46875 299.03125 277.816406 299.136719 278.199219 C 299.414062 278.996094 299.242188 279.726562 298.789062 280.28125 C 294.484375 285.453125 289.972656 290.347656 284.726562 294.273438 C 283.410156 295.277344 282.019531 295.972656 280.421875 296.148438 C 279 296.320312 277.644531 296.597656 275.179688 297.015625 C 273.269531 297.152344 270.425781 298.230469 267.371094 298.089844 C 265.632812 298.023438 263.863281 298.265625 262.75 300.105469 C 262.507812 300.519531 262.023438 300.832031 261.570312 300.9375 C 258.933594 301.632812 256.953125 303.820312 254.316406 304.582031 C 252.996094 304.964844 251.851562 306.042969 250.738281 306.980469 C 249.003906 308.472656 247.335938 310.105469 245.703125 311.769531 C 244.246094 313.226562 242.613281 314.0625 240.671875 314.375 C 237.996094 314.824219 235.324219 314.789062 232.582031 313.992188 C 230.429688 313.332031 230.082031 312.882812 230.394531 310.519531 C 230.429688 310.347656 230.394531 310.136719 230.464844 309.964844 C 231.296875 307.1875 232.027344 304.375 233.03125 301.703125 C 233.65625 300.035156 234.664062 298.648438 235.53125 297.117188 C 235.949219 296.355469 236.539062 295.695312 236.886719 294.898438 C 239.351562 289.308594 243.207031 285.105469 246.851562 280.699219 C 247.925781 279.414062 249.175781 278.335938 250.324219 277.15625 C 251.015625 276.460938 251.816406 275.835938 252.371094 275.003906 C 254.140625 272.433594 256.433594 270.664062 258.722656 268.824219 C 260.875 267.085938 263.097656 265.492188 264.972656 263.269531 C 266.464844 261.5 268.375 260.214844 270.425781 259.242188 C 273.269531 257.851562 276.015625 256.1875 278.828125 254.660156 C 280.074219 253.964844 281.359375 253.339844 282.644531 252.714844 C 283.6875 252.195312 284.796875 252.296875 285.910156 252.507812 C 286.324219 252.574219 286.847656 252.921875 287.125 253.339844 C 288.269531 254.832031 288.824219 256.671875 289.519531 258.441406 C 290.25 260.28125 291.566406 260.875 293.128906 260.214844 C 294.03125 259.867188 294.796875 259.242188 295.351562 258.375 C 296.082031 257.226562 296.777344 255.976562 297.644531 255.007812 C 298.71875 253.824219 300.109375 253.617188 301.636719 254.382812 C 302.503906 254.867188 303.058594 255.941406 302.746094 256.742188 Z M 322.675781 257.296875 C 323.230469 257.019531 323.855469 256.914062 324.652344 256.671875 C 325.695312 256.671875 326.945312 256.671875 328.195312 256.707031 C 328.300781 256.707031 328.4375 256.914062 328.472656 257.054688 C 328.507812 257.226562 328.542969 257.503906 328.4375 257.574219 C 326.875 259.207031 325.035156 259.832031 322.847656 259.03125 C 322.640625 258.964844 322.398438 258.441406 322.363281 258.128906 C 322.328125 257.851562 322.5 257.402344 322.675781 257.296875 Z M 322.675781 257.296875 " fill-opacity="1" fill-rule="nonzero"/></g><path fill="#e4e2dd" d="M 286.359375 155.675781 C 286.8125 154.53125 286.324219 153.421875 285.734375 152.484375 C 284.484375 150.398438 281.847656 149.773438 280.457031 152.136719 C 279.695312 153.488281 279.070312 154.984375 278.445312 156.441406 C 277.75 158.039062 277.992188 159.703125 278.582031 161.371094 C 278.859375 162.167969 279.484375 162.445312 280.144531 162.585938 C 280.285156 162.621094 280.527344 162.65625 280.597656 162.550781 C 280.734375 162.308594 280.980469 161.960938 280.910156 161.753906 C 280.667969 161.058594 280.285156 160.363281 280.074219 159.878906 C 279.660156 158.699219 279.660156 157.828125 280.144531 156.996094 C 280.492188 156.40625 280.769531 155.746094 281.046875 155.121094 C 281.429688 154.289062 281.984375 153.664062 282.820312 153.59375 C 284 153.523438 284.484375 154.566406 284.9375 155.640625 C 285.007812 155.816406 285.109375 155.988281 285.214844 156.128906 C 285.320312 156.265625 285.5625 156.40625 285.632812 156.371094 C 285.945312 156.164062 286.257812 155.988281 286.359375 155.675781 Z M 286.359375 155.675781 " fill-opacity="1" fill-rule="nonzero"/><path fill="#e4e2dd" d="M 285.839844 162.308594 C 285.875 162.167969 285.945312 162.066406 285.945312 161.925781 C 285.945312 161.789062 285.910156 161.613281 285.839844 161.476562 C 285.804688 161.441406 285.699219 161.441406 285.632812 161.441406 C 285.699219 161.71875 285.769531 161.996094 285.839844 162.308594 Z M 285.839844 162.308594 " fill-opacity="1" fill-rule="nonzero"/><path fill="#e4e2dd" d="M 286.601562 166.371094 L 286.914062 166.335938 L 286.707031 165.988281 Z M 286.601562 166.371094 " fill-opacity="1" fill-rule="nonzero"/><g clip-path="url(#756eee3b95)"><path fill="#e4e2dd" d="M 134.851562 70.511719 C 136.378906 74.644531 138.945312 77.734375 142.382812 79.503906 C 145.230469 80.964844 148.179688 81.9375 151.304688 81.96875 C 153.980469 82.003906 156.722656 82.664062 159.152344 81.101562 C 161.167969 81.277344 162.761719 80.0625 164.570312 79.503906 C 167.242188 78.671875 169.359375 76.972656 171.128906 74.679688 C 172.378906 73.082031 173.664062 71.519531 175.574219 70.964844 C 175.992188 70.824219 176.441406 70.511719 176.71875 70.097656 C 177.519531 68.949219 178.59375 68.257812 179.636719 67.457031 C 180.78125 66.589844 181.894531 65.480469 182.726562 64.195312 C 183.941406 62.320312 185.398438 60.722656 186.753906 59.023438 C 188.246094 57.179688 189.878906 55.550781 191.371094 53.746094 C 195.328125 48.917969 198.628906 43.539062 201.265625 37.636719 L 181.304688 37.636719 C 180.710938 38.886719 179.984375 40.066406 179.289062 41.246094 C 177.242188 44.683594 175.121094 47.980469 172.449219 50.757812 C 170.957031 52.320312 169.636719 54.125 168.179688 55.722656 C 165.367188 58.8125 162.382812 61.660156 158.945312 63.742188 C 158.390625 64.054688 157.796875 64.265625 157.171875 64.4375 C 156.304688 64.714844 155.089844 63.777344 154.988281 62.667969 C 154.882812 61.730469 154.742188 60.722656 154.882812 59.855469 C 155.332031 57.113281 155.921875 54.402344 156.480469 51.730469 C 156.582031 51.210938 156.722656 50.621094 156.964844 50.203125 C 158.457031 47.632812 159.222656 44.578125 160.507812 41.871094 C 160.644531 41.558594 160.921875 41.28125 160.957031 40.933594 C 161.097656 39.753906 161.410156 38.710938 161.792969 37.703125 L 141.480469 37.703125 C 140.371094 40.308594 139.328125 42.945312 138.355469 45.621094 C 137.347656 48.328125 136.378906 51.035156 135.683594 53.882812 C 134.539062 58.535156 133.914062 63.328125 134.433594 68.359375 C 134.539062 69.019531 134.570312 69.820312 134.851562 70.511719 Z M 134.851562 70.511719 " fill-opacity="1" fill-rule="nonzero"/></g><path fill="#e4e2dd" d="M 51.699219 131.167969 C 51.628906 131.167969 51.59375 131.167969 51.527344 131.132812 C 51.5625 131.199219 51.59375 131.304688 51.59375 131.375 Z M 51.699219 131.167969 " fill-opacity="1" fill-rule="nonzero"/><path fill="#e4e2dd" d="M 54.652344 134.257812 C 54.546875 134.222656 54.441406 134.289062 54.339844 134.324219 C 55.277344 135.992188 56.769531 136.753906 58.121094 137.726562 C 58.644531 138.109375 59.269531 138.003906 59.824219 137.726562 C 59.789062 137.554688 59.789062 137.414062 59.683594 137.3125 C 58.226562 135.714844 56.527344 134.707031 54.652344 134.257812 Z M 54.652344 134.257812 " fill-opacity="1" fill-rule="nonzero"/><path fill="#e4e2dd" d="M 59.824219 137.726562 C 59.824219 137.761719 59.824219 137.796875 59.859375 137.832031 C 59.894531 137.796875 59.960938 137.761719 59.996094 137.726562 C 59.960938 137.691406 59.960938 137.691406 59.929688 137.660156 C 59.894531 137.691406 59.859375 137.691406 59.824219 137.726562 Z M 59.824219 137.726562 " fill-opacity="1" fill-rule="nonzero"/><path fill="#e4e2dd" d="M 54.199219 134.222656 C 54.199219 134.257812 54.199219 134.324219 54.234375 134.359375 C 54.269531 134.359375 54.339844 134.324219 54.375 134.324219 C 54.375 134.289062 54.339844 134.289062 54.339844 134.257812 C 54.269531 134.222656 54.234375 134.222656 54.199219 134.222656 Z M 54.199219 134.222656 " fill-opacity="1" fill-rule="nonzero"/><path fill="#e4e2dd" d="M 51.59375 131.375 C 51.664062 131.410156 51.699219 131.445312 51.769531 131.476562 C 51.734375 131.375 51.699219 131.269531 51.664062 131.167969 Z M 51.59375 131.375 " fill-opacity="1" fill-rule="nonzero"/><path fill="#e4e2dd" d="M 52.878906 132.171875 C 52.5 131.964844 52.152344 131.722656 51.769531 131.476562 C 52.1875 132.867188 52.84375 133.945312 54.164062 134.222656 C 54.09375 133.285156 53.644531 132.625 52.878906 132.171875 Z M 52.878906 132.171875 " fill-opacity="1" fill-rule="nonzero"/><g clip-path="url(#0990955f82)"><path fill="#e4e2dd" d="M 302.050781 99.191406 C 302.226562 98.289062 302.609375 97.488281 302.921875 96.65625 C 303.546875 94.988281 304.34375 93.394531 304.796875 91.621094 C 305.28125 89.609375 306.011719 87.871094 307.226562 86.449219 C 308.234375 85.269531 308.859375 83.777344 308.996094 82.074219 C 309.238281 79.191406 310.699219 76.972656 311.496094 74.402344 C 311.636719 73.882812 311.914062 73.429688 312.226562 73.046875 C 314.03125 70.824219 315.871094 68.671875 317.15625 65.964844 C 318.542969 64.820312 319.792969 63.570312 320.972656 62.113281 C 321.355469 61.625 322.050781 61.453125 322.640625 61.242188 C 323.820312 60.792969 325.035156 60.445312 326.214844 60.027344 C 326.980469 59.75 327.605469 59.230469 327.953125 58.328125 C 329.273438 54.855469 331.945312 52.945312 334.304688 50.65625 C 334.652344 50.34375 335.175781 50.132812 335.589844 50.132812 C 336.320312 50.132812 336.910156 49.960938 337.464844 49.648438 L 337.464844 37.636719 L 315.316406 37.636719 C 313.820312 39.265625 312.292969 40.863281 310.800781 42.496094 C 307.503906 46.035156 304.171875 49.472656 301.148438 53.363281 C 299.378906 55.621094 297.402344 57.632812 295.28125 59.992188 C 293.269531 58.640625 291.984375 57.113281 290.734375 55.550781 C 290.316406 55.027344 290.003906 54.230469 289.832031 53.5 C 289.519531 52.21875 289.277344 50.863281 289.171875 49.542969 C 289.101562 48.535156 288.722656 47.808594 288.304688 46.972656 C 286.847656 44.128906 285.5625 44.613281 284.484375 46.835938 C 282.855469 50.167969 281.671875 53.777344 280.214844 57.214844 C 277.160156 64.4375 273.757812 71.382812 269.242188 77.386719 C 266.5 81.03125 263.515625 84.46875 260.320312 87.59375 C 259.105469 88.773438 257.71875 89.503906 256.226562 90.023438 C 254.417969 90.648438 252.648438 91.238281 250.808594 91.796875 C 249.90625 92.074219 248.96875 92.175781 248.03125 92.386719 C 243.621094 93.324219 243.933594 92.109375 243.03125 87.871094 C 242.753906 86.621094 242.996094 85.234375 242.925781 83.914062 C 242.648438 79.332031 243.171875 74.851562 243.519531 70.410156 C 243.863281 66.3125 244.835938 62.355469 245.914062 58.5 C 246.050781 57.980469 246.261719 57.460938 246.46875 56.972656 C 247.441406 54.683594 247.300781 51.835938 248.550781 49.683594 C 249.699219 47.738281 250.84375 45.792969 252.058594 43.917969 C 253.34375 41.941406 254.523438 39.890625 255.355469 37.601562 L 224.25 37.601562 C 224.769531 37.773438 225.324219 38.121094 225.8125 38.398438 C 226.019531 38.503906 226.261719 39.164062 226.160156 39.371094 C 225.601562 40.898438 225.046875 42.390625 224.351562 43.816406 C 221.679688 49.40625 219.527344 55.308594 217.964844 61.554688 C 216.644531 66.832031 215.464844 72.179688 214.214844 77.492188 C 214.738281 77.386719 215.257812 77.074219 215.917969 77.492188 C 216.054688 78.949219 216.4375 80.476562 216.332031 81.9375 C 216.089844 86.414062 217.546875 90.546875 219.042969 94.609375 C 219.804688 96.726562 220.917969 98.703125 221.855469 100.753906 C 223.796875 104.917969 226.367188 108.390625 229.875 110.855469 C 230.152344 111.0625 230.394531 111.34375 230.601562 111.621094 C 230.707031 111.757812 230.8125 112.035156 230.742188 112.140625 C 230.636719 112.417969 230.429688 112.871094 230.253906 112.835938 C 228.9375 112.59375 227.789062 112.835938 226.785156 113.773438 C 227.410156 113.738281 228 113.597656 228.625 113.667969 C 229.421875 113.738281 230.253906 114.222656 230.984375 114.085938 C 233.414062 113.667969 235.742188 114.398438 238.066406 115.371094 C 240.914062 116.550781 243.726562 116.863281 246.574219 116.339844 C 248.726562 115.960938 250.914062 115.507812 253.101562 115.195312 C 257.996094 114.5 262.4375 112.347656 266.917969 110.265625 C 267.613281 109.953125 268.203125 109.292969 268.898438 108.875 C 270.390625 107.941406 271.917969 107.035156 273.410156 106.132812 C 273.722656 105.960938 274.554688 106.480469 274.625 106.863281 C 274.902344 108.738281 275.144531 110.648438 275.390625 112.523438 C 276.015625 117.554688 277.609375 122.070312 280.386719 126.269531 C 282.957031 130.125 286.046875 132.277344 289.902344 132.761719 C 292.125 133.039062 294.34375 133.527344 296.53125 132.761719 C 297.402344 132.449219 298.40625 132.554688 299.34375 132.382812 C 300.421875 132.171875 301.496094 131.929688 302.539062 131.617188 C 307.953125 130.019531 312.398438 126.234375 316.667969 120.890625 C 317.191406 120.230469 317.675781 119.464844 318.335938 119.015625 C 320.453125 117.488281 322.121094 115.335938 323.785156 113.214844 C 324.203125 112.695312 324.515625 111.933594 325.035156 111.65625 C 326.980469 110.648438 328.023438 108.566406 329.410156 106.933594 C 330.902344 105.128906 332.1875 103.042969 334.203125 101.933594 C 334.617188 101.726562 334.929688 101.273438 335.207031 100.855469 C 335.9375 99.851562 336.734375 98.914062 337.464844 97.871094 L 337.464844 72.285156 C 335.519531 75.027344 333.542969 77.699219 331.460938 80.304688 C 328.335938 84.261719 325.175781 88.183594 322.085938 92.210938 C 319.515625 95.546875 316.703125 98.636719 313.960938 101.757812 C 311.980469 104.015625 309.933594 106.203125 307.851562 108.355469 C 306.949219 109.292969 305.90625 110.09375 304.863281 110.890625 C 303.925781 111.621094 302.851562 111.792969 301.707031 111.6875 C 301.117188 111.65625 300.492188 110.925781 300.492188 110.195312 C 300.492188 109.433594 300.421875 108.667969 300.523438 107.941406 C 301.011719 105.023438 301.496094 102.070312 302.050781 99.191406 Z M 302.050781 99.191406 " fill-opacity="1" fill-rule="nonzero"/></g><path fill="#e4e2dd" d="M 212.929688 88.742188 C 212.792969 89.609375 212.792969 90.582031 212.929688 91.484375 C 213.382812 94.46875 214.25 97.351562 215.640625 100.023438 C 215.707031 100.128906 215.917969 100.164062 216.089844 100.199219 C 216.125 100.023438 216.230469 99.851562 216.195312 99.710938 C 215.464844 96.03125 214.597656 92.351562 214.113281 88.636719 C 214.078125 88.324219 213.902344 88.011719 213.730469 87.734375 C 213.453125 88.046875 213 88.324219 212.929688 88.742188 Z M 212.929688 88.742188 " fill-opacity="1" fill-rule="nonzero"/><path fill="#e4e2dd" d="M 214.214844 77.839844 C 214.214844 77.804688 214.214844 77.734375 214.214844 77.699219 C 214.214844 77.664062 214.25 77.597656 214.25 77.5625 C 214.214844 77.5625 214.144531 77.5625 214.078125 77.597656 C 214.113281 77.664062 214.179688 77.734375 214.214844 77.839844 Z M 214.214844 77.839844 " fill-opacity="1" fill-rule="nonzero"/><path fill="#e4e2dd" d="M 213.765625 87.628906 C 213.730469 87.59375 213.695312 87.59375 213.695312 87.59375 C 213.695312 87.628906 213.730469 87.664062 213.765625 87.699219 C 213.765625 87.699219 213.800781 87.664062 213.765625 87.628906 C 213.765625 87.59375 213.765625 87.523438 213.765625 87.492188 C 213.730469 87.523438 213.730469 87.558594 213.695312 87.59375 C 213.695312 87.59375 213.730469 87.628906 213.765625 87.628906 Z M 213.765625 87.628906 " fill-opacity="1" fill-rule="nonzero"/><path fill="#e4e2dd" d="M 213.765625 87.492188 C 213.9375 87.28125 214.214844 87.074219 214.25 86.832031 C 214.5625 84.121094 214.667969 81.378906 214.492188 78.601562 C 214.492188 78.359375 214.355469 78.082031 214.214844 77.839844 C 213.9375 80.375 213.625 82.90625 213.417969 85.441406 C 213.382812 86.101562 213.625 86.796875 213.765625 87.492188 Z M 213.765625 87.492188 " fill-opacity="1" fill-rule="nonzero"/><path fill="#e4e2dd" d="M 225.601562 112.070312 C 225.601562 112.140625 225.601562 112.175781 225.601562 112.246094 L 225.707031 112.105469 C 225.671875 112.105469 225.636719 112.070312 225.601562 112.070312 Z M 225.601562 112.070312 " fill-opacity="1" fill-rule="nonzero"/><path fill="#e4e2dd" d="M 224.632812 110.578125 C 223.9375 110.125 223.171875 109.78125 222.929688 108.738281 L 222.929688 108.84375 C 222.757812 109.640625 222.929688 110.40625 223.519531 110.855469 C 224.179688 111.34375 224.910156 111.65625 225.636719 112.035156 C 225.636719 111.273438 225.117188 110.925781 224.632812 110.578125 Z M 224.632812 110.578125 " fill-opacity="1" fill-rule="nonzero"/><path fill="#e4e2dd" d="M 220.742188 107.90625 C 220.742188 107.90625 221.019531 108.113281 221.019531 108.113281 C 221.019531 108.113281 221.089844 108.007812 221.089844 108.007812 Z M 220.742188 107.90625 " fill-opacity="1" fill-rule="nonzero"/><path fill="#e4e2dd" d="M 221.089844 107.972656 C 221.089844 107.972656 221.019531 108.078125 221.019531 108.078125 C 221.574219 108.703125 222.167969 109.050781 222.859375 108.738281 C 222.480469 107.730469 221.820312 107.800781 221.089844 107.972656 Z M 221.089844 107.972656 " fill-opacity="1" fill-rule="nonzero"/><path fill="#e4e2dd" d="M 222.894531 108.738281 C 222.894531 108.773438 222.894531 108.773438 222.894531 108.738281 C 222.859375 108.773438 222.894531 108.808594 222.894531 108.84375 C 222.894531 108.84375 222.929688 108.738281 222.894531 108.738281 Z M 222.894531 108.738281 " fill-opacity="1" fill-rule="nonzero"/><path fill="#e4e2dd" d="M 226.785156 113.773438 C 226.75 113.527344 226.714844 113.355469 226.609375 113.183594 C 226.679688 113.390625 226.714844 113.597656 226.785156 113.773438 Z M 226.785156 113.773438 " fill-opacity="1" fill-rule="nonzero"/><path fill="#e4e2dd" d="M 225.847656 112.246094 C 226.125 112.523438 226.4375 112.800781 226.609375 113.183594 C 226.507812 112.730469 226.332031 112.347656 225.847656 112.246094 Z M 225.847656 112.246094 " fill-opacity="1" fill-rule="nonzero"/><path fill="#e4e2dd" d="M 225.601562 112.246094 C 225.707031 112.246094 225.777344 112.246094 225.847656 112.246094 C 225.8125 112.210938 225.742188 112.140625 225.707031 112.105469 C 225.707031 112.105469 225.601562 112.246094 225.601562 112.246094 Z M 225.601562 112.246094 " fill-opacity="1" fill-rule="nonzero"/><path fill="#e4e2dd" d="M 226.785156 113.773438 C 226.785156 113.808594 226.785156 113.808594 226.785156 113.808594 C 226.785156 113.808594 226.785156 113.808594 226.75 113.808594 C 226.785156 113.808594 226.785156 113.808594 226.785156 113.773438 Z M 226.785156 113.773438 " fill-opacity="1" fill-rule="nonzero"/></svg>